<mxfile host="app.diagrams.net" agent="Mozilla/5.0 (Windows NT 10.0; Win64; x64) AppleWebKit/537.36 (KHTML, like Gecko) Chrome/135.0.0.0 Safari/537.36" version="26.2.9">
  <diagram name="PÃ¡gina-1" id="Nt3fjL4AMXvIJ_v2fAyT">
    <mxGraphModel dx="3615" dy="2093" grid="1" gridSize="10" guides="1" tooltips="1" connect="1" arrows="1" fold="1" page="1" pageScale="1" pageWidth="827" pageHeight="1169" math="0" shadow="0">
      <root>
        <mxCell id="0" />
        <mxCell id="1" parent="0" />
        <mxCell id="Chyv1uTGt5TqhsLYrdFu-5" value="Arithmetic" style="swimlane;fontStyle=1;align=center;verticalAlign=top;childLayout=stackLayout;horizontal=1;startSize=26;horizontalStack=0;resizeParent=1;resizeParentMax=0;resizeLast=0;collapsible=1;marginBottom=0;whiteSpace=wrap;html=1;" parent="1" vertex="1">
          <mxGeometry x="-869.52" y="838" width="110" height="84" as="geometry" />
        </mxCell>
        <mxCell id="Chyv1uTGt5TqhsLYrdFu-6" value="+ opName: String" style="text;strokeColor=none;fillColor=none;align=left;verticalAlign=top;spacingLeft=4;spacingRight=4;overflow=hidden;rotatable=0;points=[[0,0.5],[1,0.5]];portConstraint=eastwest;whiteSpace=wrap;html=1;" parent="Chyv1uTGt5TqhsLYrdFu-5" vertex="1">
          <mxGeometry y="26" width="110" height="24" as="geometry" />
        </mxCell>
        <mxCell id="Chyv1uTGt5TqhsLYrdFu-7" value="" style="line;strokeWidth=1;fillColor=none;align=left;verticalAlign=middle;spacingTop=-1;spacingLeft=3;spacingRight=3;rotatable=0;labelPosition=right;points=[];portConstraint=eastwest;strokeColor=inherit;" parent="Chyv1uTGt5TqhsLYrdFu-5" vertex="1">
          <mxGeometry y="50" width="110" height="8" as="geometry" />
        </mxCell>
        <mxCell id="Chyv1uTGt5TqhsLYrdFu-8" value="&lt;div&gt;&lt;br&gt;&lt;/div&gt;&lt;div&gt;&lt;br&gt;&lt;/div&gt;" style="text;strokeColor=none;fillColor=none;align=left;verticalAlign=top;spacingLeft=4;spacingRight=4;overflow=hidden;rotatable=0;points=[[0,0.5],[1,0.5]];portConstraint=eastwest;whiteSpace=wrap;html=1;" parent="Chyv1uTGt5TqhsLYrdFu-5" vertex="1">
          <mxGeometry y="58" width="110" height="26" as="geometry" />
        </mxCell>
        <mxCell id="Chyv1uTGt5TqhsLYrdFu-13" value="IntLiteral" style="swimlane;fontStyle=1;align=center;verticalAlign=top;childLayout=stackLayout;horizontal=1;startSize=26;horizontalStack=0;resizeParent=1;resizeParentMax=0;resizeLast=0;collapsible=1;marginBottom=0;whiteSpace=wrap;html=1;" parent="1" vertex="1">
          <mxGeometry x="-702.5" y="840" width="104.52" height="86" as="geometry" />
        </mxCell>
        <mxCell id="Chyv1uTGt5TqhsLYrdFu-14" value="+ value: int" style="text;strokeColor=none;fillColor=none;align=left;verticalAlign=top;spacingLeft=4;spacingRight=4;overflow=hidden;rotatable=0;points=[[0,0.5],[1,0.5]];portConstraint=eastwest;whiteSpace=wrap;html=1;" parent="Chyv1uTGt5TqhsLYrdFu-13" vertex="1">
          <mxGeometry y="26" width="104.52" height="26" as="geometry" />
        </mxCell>
        <mxCell id="Chyv1uTGt5TqhsLYrdFu-15" value="" style="line;strokeWidth=1;fillColor=none;align=left;verticalAlign=middle;spacingTop=-1;spacingLeft=3;spacingRight=3;rotatable=0;labelPosition=right;points=[];portConstraint=eastwest;strokeColor=inherit;" parent="Chyv1uTGt5TqhsLYrdFu-13" vertex="1">
          <mxGeometry y="52" width="104.52" height="8" as="geometry" />
        </mxCell>
        <mxCell id="Chyv1uTGt5TqhsLYrdFu-16" value="&lt;div&gt;&lt;br&gt;&lt;/div&gt;&lt;div&gt;&lt;br&gt;&lt;/div&gt;" style="text;strokeColor=none;fillColor=none;align=left;verticalAlign=top;spacingLeft=4;spacingRight=4;overflow=hidden;rotatable=0;points=[[0,0.5],[1,0.5]];portConstraint=eastwest;whiteSpace=wrap;html=1;" parent="Chyv1uTGt5TqhsLYrdFu-13" vertex="1">
          <mxGeometry y="60" width="104.52" height="26" as="geometry" />
        </mxCell>
        <mxCell id="Chyv1uTGt5TqhsLYrdFu-17" value="Variable" style="swimlane;fontStyle=1;align=center;verticalAlign=top;childLayout=stackLayout;horizontal=1;startSize=26;horizontalStack=0;resizeParent=1;resizeParentMax=0;resizeLast=0;collapsible=1;marginBottom=0;whiteSpace=wrap;html=1;" parent="1" vertex="1">
          <mxGeometry x="-543" y="840" width="130" height="90" as="geometry" />
        </mxCell>
        <mxCell id="Chyv1uTGt5TqhsLYrdFu-18" value="+ name: String&lt;div&gt;+ definition : Definition&lt;/div&gt;" style="text;strokeColor=none;fillColor=none;align=left;verticalAlign=top;spacingLeft=4;spacingRight=4;overflow=hidden;rotatable=0;points=[[0,0.5],[1,0.5]];portConstraint=eastwest;whiteSpace=wrap;html=1;" parent="Chyv1uTGt5TqhsLYrdFu-17" vertex="1">
          <mxGeometry y="26" width="130" height="34" as="geometry" />
        </mxCell>
        <mxCell id="Chyv1uTGt5TqhsLYrdFu-19" value="" style="line;strokeWidth=1;fillColor=none;align=left;verticalAlign=middle;spacingTop=-1;spacingLeft=3;spacingRight=3;rotatable=0;labelPosition=right;points=[];portConstraint=eastwest;strokeColor=inherit;" parent="Chyv1uTGt5TqhsLYrdFu-17" vertex="1">
          <mxGeometry y="60" width="130" height="8" as="geometry" />
        </mxCell>
        <mxCell id="Chyv1uTGt5TqhsLYrdFu-20" value="&lt;div&gt;&lt;br&gt;&lt;/div&gt;&lt;div&gt;&lt;br&gt;&lt;/div&gt;" style="text;strokeColor=none;fillColor=none;align=left;verticalAlign=top;spacingLeft=4;spacingRight=4;overflow=hidden;rotatable=0;points=[[0,0.5],[1,0.5]];portConstraint=eastwest;whiteSpace=wrap;html=1;" parent="Chyv1uTGt5TqhsLYrdFu-17" vertex="1">
          <mxGeometry y="68" width="130" height="22" as="geometry" />
        </mxCell>
        <mxCell id="Chyv1uTGt5TqhsLYrdFu-33" value="" style="endArrow=none;html=1;endSize=12;startArrow=diamondThin;startSize=14;startFill=0;edgeStyle=orthogonalEdgeStyle;align=left;verticalAlign=bottom;rounded=0;exitX=0.527;exitY=1.032;exitDx=0;exitDy=0;exitPerimeter=0;entryX=1;entryY=0.25;entryDx=0;entryDy=0;" parent="1" source="NF-DhXXJ8hGUxy49Zucw-8" target="5em6XzOoX73Qv20cHfNX-2" edge="1">
          <mxGeometry x="-1" y="3" relative="1" as="geometry">
            <mxPoint x="-269.52" y="879.91" as="sourcePoint" />
            <mxPoint x="-437.02" y="654.9324999999999" as="targetPoint" />
            <Array as="points">
              <mxPoint x="-367" y="1050" />
              <mxPoint x="-40" y="1050" />
              <mxPoint x="-40" y="640" />
              <mxPoint x="-380" y="640" />
              <mxPoint x="-380" y="662" />
            </Array>
          </mxGeometry>
        </mxCell>
        <mxCell id="Chyv1uTGt5TqhsLYrdFu-34" value="1" style="edgeLabel;html=1;align=center;verticalAlign=middle;resizable=0;points=[];" parent="Chyv1uTGt5TqhsLYrdFu-33" vertex="1" connectable="0">
          <mxGeometry x="0.9551" y="6" relative="1" as="geometry">
            <mxPoint x="-17" y="-16" as="offset" />
          </mxGeometry>
        </mxCell>
        <mxCell id="Chyv1uTGt5TqhsLYrdFu-35" value="" style="endArrow=block;dashed=1;endFill=0;endSize=12;html=1;rounded=0;exitX=0.5;exitY=0;exitDx=0;exitDy=0;entryX=0.5;entryY=1;entryDx=0;entryDy=0;" parent="1" source="Chyv1uTGt5TqhsLYrdFu-17" target="5em6XzOoX73Qv20cHfNX-2" edge="1">
          <mxGeometry width="160" relative="1" as="geometry">
            <mxPoint x="-504.52" y="769.91" as="sourcePoint" />
            <mxPoint x="-559.52" y="730" as="targetPoint" />
            <Array as="points">
              <mxPoint x="-478" y="800" />
              <mxPoint x="-560" y="800" />
            </Array>
          </mxGeometry>
        </mxCell>
        <mxCell id="Chyv1uTGt5TqhsLYrdFu-36" value="" style="endArrow=block;dashed=1;endFill=0;endSize=12;html=1;rounded=0;exitX=0.5;exitY=0;exitDx=0;exitDy=0;entryX=0.5;entryY=1;entryDx=0;entryDy=0;" parent="1" source="NF-DhXXJ8hGUxy49Zucw-5" target="5em6XzOoX73Qv20cHfNX-2" edge="1">
          <mxGeometry width="160" relative="1" as="geometry">
            <mxPoint x="-374.5199999999995" y="789.91" as="sourcePoint" />
            <mxPoint x="-559.52" y="730" as="targetPoint" />
            <Array as="points">
              <mxPoint x="-370" y="800" />
              <mxPoint x="-560" y="800" />
            </Array>
          </mxGeometry>
        </mxCell>
        <mxCell id="Chyv1uTGt5TqhsLYrdFu-37" value="" style="endArrow=block;dashed=1;endFill=0;endSize=12;html=1;rounded=0;exitX=0.5;exitY=0;exitDx=0;exitDy=0;entryX=0.5;entryY=1;entryDx=0;entryDy=0;" parent="1" source="Chyv1uTGt5TqhsLYrdFu-13" target="5em6XzOoX73Qv20cHfNX-2" edge="1">
          <mxGeometry width="160" relative="1" as="geometry">
            <mxPoint x="-364.52" y="799.91" as="sourcePoint" />
            <mxPoint x="-559.52" y="730" as="targetPoint" />
            <Array as="points">
              <mxPoint x="-650" y="800" />
              <mxPoint x="-560" y="800" />
            </Array>
          </mxGeometry>
        </mxCell>
        <mxCell id="Chyv1uTGt5TqhsLYrdFu-38" value="" style="endArrow=block;dashed=1;endFill=0;endSize=12;html=1;rounded=0;exitX=0.517;exitY=-0.002;exitDx=0;exitDy=0;entryX=0.5;entryY=1;entryDx=0;entryDy=0;exitPerimeter=0;" parent="1" source="Chyv1uTGt5TqhsLYrdFu-5" target="5em6XzOoX73Qv20cHfNX-2" edge="1">
          <mxGeometry width="160" relative="1" as="geometry">
            <mxPoint x="-934.52" y="789.91" as="sourcePoint" />
            <mxPoint x="-559.52" y="730" as="targetPoint" />
            <Array as="points">
              <mxPoint x="-813" y="800" />
              <mxPoint x="-560" y="800" />
            </Array>
          </mxGeometry>
        </mxCell>
        <mxCell id="Chyv1uTGt5TqhsLYrdFu-39" value="" style="endArrow=none;html=1;endSize=12;startArrow=diamondThin;startSize=14;startFill=0;edgeStyle=orthogonalEdgeStyle;align=left;verticalAlign=bottom;rounded=0;exitX=0.25;exitY=0;exitDx=0;exitDy=0;entryX=-0.001;entryY=0.85;entryDx=0;entryDy=0;entryPerimeter=0;" parent="1" source="Chyv1uTGt5TqhsLYrdFu-5" target="5em6XzOoX73Qv20cHfNX-2" edge="1">
          <mxGeometry x="-1" y="3" relative="1" as="geometry">
            <mxPoint x="-1034.52" y="850.794" as="sourcePoint" />
            <mxPoint x="-690" y="720" as="targetPoint" />
            <Array as="points">
              <mxPoint x="-842" y="741" />
            </Array>
          </mxGeometry>
        </mxCell>
        <mxCell id="N4AWmAxjkQPShpaZA549-2" value="2" style="edgeLabel;html=1;align=center;verticalAlign=middle;resizable=0;points=[];" parent="Chyv1uTGt5TqhsLYrdFu-39" vertex="1" connectable="0">
          <mxGeometry x="0.805" y="-1" relative="1" as="geometry">
            <mxPoint x="17" y="12" as="offset" />
          </mxGeometry>
        </mxCell>
        <mxCell id="Chyv1uTGt5TqhsLYrdFu-48" value="IfElse" style="swimlane;fontStyle=1;align=center;verticalAlign=top;childLayout=stackLayout;horizontal=1;startSize=26;horizontalStack=0;resizeParent=1;resizeParentMax=0;resizeLast=0;collapsible=1;marginBottom=0;whiteSpace=wrap;html=1;" parent="1" vertex="1">
          <mxGeometry x="-1100" y="304" width="90" height="84" as="geometry" />
        </mxCell>
        <mxCell id="Chyv1uTGt5TqhsLYrdFu-49" value="&lt;div&gt;&lt;br&gt;&lt;/div&gt;" style="text;strokeColor=none;fillColor=none;align=left;verticalAlign=top;spacingLeft=4;spacingRight=4;overflow=hidden;rotatable=0;points=[[0,0.5],[1,0.5]];portConstraint=eastwest;whiteSpace=wrap;html=1;" parent="Chyv1uTGt5TqhsLYrdFu-48" vertex="1">
          <mxGeometry y="26" width="90" height="24" as="geometry" />
        </mxCell>
        <mxCell id="Chyv1uTGt5TqhsLYrdFu-50" value="" style="line;strokeWidth=1;fillColor=none;align=left;verticalAlign=middle;spacingTop=-1;spacingLeft=3;spacingRight=3;rotatable=0;labelPosition=right;points=[];portConstraint=eastwest;strokeColor=inherit;" parent="Chyv1uTGt5TqhsLYrdFu-48" vertex="1">
          <mxGeometry y="50" width="90" height="8" as="geometry" />
        </mxCell>
        <mxCell id="Chyv1uTGt5TqhsLYrdFu-51" value="&lt;div&gt;&lt;br&gt;&lt;/div&gt;&lt;div&gt;&lt;br&gt;&lt;/div&gt;" style="text;strokeColor=none;fillColor=none;align=left;verticalAlign=top;spacingLeft=4;spacingRight=4;overflow=hidden;rotatable=0;points=[[0,0.5],[1,0.5]];portConstraint=eastwest;whiteSpace=wrap;html=1;" parent="Chyv1uTGt5TqhsLYrdFu-48" vertex="1">
          <mxGeometry y="58" width="90" height="26" as="geometry" />
        </mxCell>
        <mxCell id="Chyv1uTGt5TqhsLYrdFu-52" value="Â«interfaceÂ»&lt;br&gt;&lt;b&gt;Statement&lt;/b&gt;" style="html=1;whiteSpace=wrap;" parent="1" vertex="1">
          <mxGeometry x="-1020" y="220" width="140" height="70" as="geometry" />
        </mxCell>
        <mxCell id="Chyv1uTGt5TqhsLYrdFu-59" value="Program" style="swimlane;fontStyle=1;align=center;verticalAlign=top;childLayout=stackLayout;horizontal=1;startSize=26;horizontalStack=0;resizeParent=1;resizeParentMax=0;resizeLast=0;collapsible=1;marginBottom=0;whiteSpace=wrap;html=1;" parent="1" vertex="1">
          <mxGeometry x="-720" y="-86" width="151" height="86" as="geometry" />
        </mxCell>
        <mxCell id="Chyv1uTGt5TqhsLYrdFu-60" value="+ definitions : Definition[ ]" style="text;strokeColor=none;fillColor=none;align=left;verticalAlign=top;spacingLeft=4;spacingRight=4;overflow=hidden;rotatable=0;points=[[0,0.5],[1,0.5]];portConstraint=eastwest;whiteSpace=wrap;html=1;" parent="Chyv1uTGt5TqhsLYrdFu-59" vertex="1">
          <mxGeometry y="26" width="151" height="26" as="geometry" />
        </mxCell>
        <mxCell id="Chyv1uTGt5TqhsLYrdFu-61" value="" style="line;strokeWidth=1;fillColor=none;align=left;verticalAlign=middle;spacingTop=-1;spacingLeft=3;spacingRight=3;rotatable=0;labelPosition=right;points=[];portConstraint=eastwest;strokeColor=inherit;" parent="Chyv1uTGt5TqhsLYrdFu-59" vertex="1">
          <mxGeometry y="52" width="151" height="8" as="geometry" />
        </mxCell>
        <mxCell id="Chyv1uTGt5TqhsLYrdFu-62" value="&lt;div&gt;&lt;br&gt;&lt;/div&gt;&lt;div&gt;&lt;br&gt;&lt;/div&gt;" style="text;strokeColor=none;fillColor=none;align=left;verticalAlign=top;spacingLeft=4;spacingRight=4;overflow=hidden;rotatable=0;points=[[0,0.5],[1,0.5]];portConstraint=eastwest;whiteSpace=wrap;html=1;" parent="Chyv1uTGt5TqhsLYrdFu-59" vertex="1">
          <mxGeometry y="60" width="151" height="26" as="geometry" />
        </mxCell>
        <mxCell id="Chyv1uTGt5TqhsLYrdFu-64" value="VariableDefinition" style="swimlane;fontStyle=1;align=center;verticalAlign=top;childLayout=stackLayout;horizontal=1;startSize=26;horizontalStack=0;resizeParent=1;resizeParentMax=0;resizeLast=0;collapsible=1;marginBottom=0;whiteSpace=wrap;html=1;" parent="1" vertex="1">
          <mxGeometry x="-869.52" y="286" width="160" height="110" as="geometry" />
        </mxCell>
        <mxCell id="Chyv1uTGt5TqhsLYrdFu-65" value="+ varName : String&lt;div&gt;+ offset : int&lt;/div&gt;" style="text;strokeColor=none;fillColor=none;align=left;verticalAlign=top;spacingLeft=4;spacingRight=4;overflow=hidden;rotatable=0;points=[[0,0.5],[1,0.5]];portConstraint=eastwest;whiteSpace=wrap;html=1;" parent="Chyv1uTGt5TqhsLYrdFu-64" vertex="1">
          <mxGeometry y="26" width="160" height="34" as="geometry" />
        </mxCell>
        <mxCell id="Chyv1uTGt5TqhsLYrdFu-66" value="" style="line;strokeWidth=1;fillColor=none;align=left;verticalAlign=middle;spacingTop=-1;spacingLeft=3;spacingRight=3;rotatable=0;labelPosition=right;points=[];portConstraint=eastwest;strokeColor=inherit;" parent="Chyv1uTGt5TqhsLYrdFu-64" vertex="1">
          <mxGeometry y="60" width="160" height="8" as="geometry" />
        </mxCell>
        <mxCell id="Chyv1uTGt5TqhsLYrdFu-67" value="+ getOffset() : int&lt;div&gt;+ setOffset(int) : void&lt;/div&gt;" style="text;strokeColor=none;fillColor=none;align=left;verticalAlign=top;spacingLeft=4;spacingRight=4;overflow=hidden;rotatable=0;points=[[0,0.5],[1,0.5]];portConstraint=eastwest;whiteSpace=wrap;html=1;" parent="Chyv1uTGt5TqhsLYrdFu-64" vertex="1">
          <mxGeometry y="68" width="160" height="42" as="geometry" />
        </mxCell>
        <mxCell id="Chyv1uTGt5TqhsLYrdFu-68" value="Function&lt;span style=&quot;background-color: transparent; color: light-dark(rgb(0, 0, 0), rgb(255, 255, 255));&quot;&gt;Definition&lt;/span&gt;" style="swimlane;fontStyle=1;align=center;verticalAlign=top;childLayout=stackLayout;horizontal=1;startSize=26;horizontalStack=0;resizeParent=1;resizeParentMax=0;resizeLast=0;collapsible=1;marginBottom=0;whiteSpace=wrap;html=1;" parent="1" vertex="1">
          <mxGeometry x="-690" y="303" width="160" height="80" as="geometry" />
        </mxCell>
        <mxCell id="6K4hzNi9QEj4y1inR-pd-1" value="+ funcName: String" style="text;strokeColor=none;fillColor=none;align=left;verticalAlign=top;spacingLeft=4;spacingRight=4;overflow=hidden;rotatable=0;points=[[0,0.5],[1,0.5]];portConstraint=eastwest;whiteSpace=wrap;html=1;" parent="Chyv1uTGt5TqhsLYrdFu-68" vertex="1">
          <mxGeometry y="26" width="160" height="26" as="geometry" />
        </mxCell>
        <mxCell id="Chyv1uTGt5TqhsLYrdFu-70" value="" style="line;strokeWidth=1;fillColor=none;align=left;verticalAlign=middle;spacingTop=-1;spacingLeft=3;spacingRight=3;rotatable=0;labelPosition=right;points=[];portConstraint=eastwest;strokeColor=inherit;" parent="Chyv1uTGt5TqhsLYrdFu-68" vertex="1">
          <mxGeometry y="52" width="160" height="8" as="geometry" />
        </mxCell>
        <mxCell id="Chyv1uTGt5TqhsLYrdFu-71" value="&lt;div&gt;&lt;br&gt;&lt;/div&gt;&lt;div&gt;&lt;br&gt;&lt;/div&gt;" style="text;strokeColor=none;fillColor=none;align=left;verticalAlign=top;spacingLeft=4;spacingRight=4;overflow=hidden;rotatable=0;points=[[0,0.5],[1,0.5]];portConstraint=eastwest;whiteSpace=wrap;html=1;" parent="Chyv1uTGt5TqhsLYrdFu-68" vertex="1">
          <mxGeometry y="60" width="160" height="20" as="geometry" />
        </mxCell>
        <mxCell id="Chyv1uTGt5TqhsLYrdFu-73" value="&lt;p style=&quot;margin:0px;margin-top:4px;text-align:center;&quot;&gt;&lt;i&gt;&amp;lt;&amp;lt;Interface&amp;gt;&amp;gt;&lt;/i&gt;&lt;br&gt;&lt;b&gt;Locatable&lt;/b&gt;&lt;/p&gt;&lt;hr size=&quot;1&quot; style=&quot;border-style:solid;&quot;&gt;&lt;p style=&quot;margin:0px;margin-left:4px;&quot;&gt;+ getRow() : int&lt;br&gt;+ getColumn() : int&lt;/p&gt;" style="verticalAlign=top;align=left;overflow=fill;html=1;whiteSpace=wrap;" parent="1" vertex="1">
          <mxGeometry x="-849.52" y="16" width="115" height="110" as="geometry" />
        </mxCell>
        <mxCell id="Chyv1uTGt5TqhsLYrdFu-77" value="" style="endArrow=block;dashed=1;endFill=0;endSize=12;html=1;rounded=0;exitX=0.5;exitY=0;exitDx=0;exitDy=0;entryX=0.4;entryY=0.998;entryDx=0;entryDy=0;entryPerimeter=0;" parent="1" source="Chyv1uTGt5TqhsLYrdFu-64" target="Chyv1uTGt5TqhsLYrdFu-81" edge="1">
          <mxGeometry width="160" relative="1" as="geometry">
            <mxPoint x="-780" y="300" as="sourcePoint" />
            <mxPoint x="-610" y="210" as="targetPoint" />
            <Array as="points">
              <mxPoint x="-790" y="230" />
              <mxPoint x="-610" y="230" />
            </Array>
          </mxGeometry>
        </mxCell>
        <mxCell id="Chyv1uTGt5TqhsLYrdFu-78" value="" style="endArrow=block;dashed=1;endFill=0;endSize=12;html=1;rounded=0;exitX=0.5;exitY=0;exitDx=0;exitDy=0;" parent="1" source="Chyv1uTGt5TqhsLYrdFu-68" edge="1">
          <mxGeometry width="160" relative="1" as="geometry">
            <mxPoint x="-610.05" y="300" as="sourcePoint" />
            <mxPoint x="-610.05" y="206" as="targetPoint" />
            <Array as="points">
              <mxPoint x="-610.05" y="276" />
              <mxPoint x="-610.05" y="256" />
              <mxPoint x="-610.05" y="236" />
            </Array>
          </mxGeometry>
        </mxCell>
        <mxCell id="Chyv1uTGt5TqhsLYrdFu-81" value="&lt;p style=&quot;margin:0px;margin-top:4px;text-align:center;&quot;&gt;&lt;i&gt;&amp;lt;&amp;lt;Interface&amp;gt;&amp;gt;&lt;/i&gt;&lt;br&gt;&lt;b&gt;Definition&lt;/b&gt;&lt;/p&gt;&lt;hr size=&quot;1&quot; style=&quot;border-style:solid;&quot;&gt;&lt;p style=&quot;margin:0px;margin-left:4px;&quot;&gt;+ scope : int&lt;/p&gt;&lt;hr size=&quot;1&quot; style=&quot;border-style:solid;&quot;&gt;&lt;p style=&quot;margin:0px;margin-left:4px;&quot;&gt;+ getName() : String&lt;/p&gt;&lt;p style=&quot;margin:0px;margin-left:4px;&quot;&gt;+ getScope() : int&lt;/p&gt;&lt;p style=&quot;margin:0px;margin-left:4px;&quot;&gt;+ setScope(int): void&lt;br&gt;&lt;br&gt;&lt;/p&gt;" style="verticalAlign=top;align=left;overflow=fill;html=1;whiteSpace=wrap;" parent="1" vertex="1">
          <mxGeometry x="-670" y="80" width="150" height="126" as="geometry" />
        </mxCell>
        <mxCell id="Chyv1uTGt5TqhsLYrdFu-84" value="" style="endArrow=open;endSize=12;dashed=1;html=1;rounded=0;entryX=0;entryY=0.391;entryDx=0;entryDy=0;entryPerimeter=0;" parent="1" target="N4AWmAxjkQPShpaZA549-1" edge="1">
          <mxGeometry x="0.5385" y="15" width="160" relative="1" as="geometry">
            <mxPoint x="-520" y="165" as="sourcePoint" />
            <mxPoint x="-495" y="205" as="targetPoint" />
            <Array as="points">
              <mxPoint x="-490" y="165" />
            </Array>
            <mxPoint as="offset" />
          </mxGeometry>
        </mxCell>
        <mxCell id="Chyv1uTGt5TqhsLYrdFu-85" value="" style="endArrow=none;html=1;endSize=12;startArrow=diamondThin;startSize=14;startFill=0;edgeStyle=orthogonalEdgeStyle;align=left;verticalAlign=bottom;rounded=0;entryX=0.173;entryY=-0.002;entryDx=0;entryDy=0;exitX=0.501;exitY=0.991;exitDx=0;exitDy=0;exitPerimeter=0;entryPerimeter=0;" parent="1" source="Chyv1uTGt5TqhsLYrdFu-62" target="Chyv1uTGt5TqhsLYrdFu-81" edge="1">
          <mxGeometry x="-1" y="3" relative="1" as="geometry">
            <mxPoint x="-630" y="130" as="sourcePoint" />
            <mxPoint x="-470" y="191" as="targetPoint" />
            <Array as="points" />
          </mxGeometry>
        </mxCell>
        <mxCell id="Chyv1uTGt5TqhsLYrdFu-86" value="*" style="edgeLabel;html=1;align=center;verticalAlign=middle;resizable=0;points=[];" parent="Chyv1uTGt5TqhsLYrdFu-85" vertex="1" connectable="0">
          <mxGeometry x="0.9551" y="6" relative="1" as="geometry">
            <mxPoint x="4" y="-7" as="offset" />
          </mxGeometry>
        </mxCell>
        <mxCell id="Chyv1uTGt5TqhsLYrdFu-88" value="" style="endArrow=block;dashed=1;endFill=0;endSize=12;html=1;rounded=0;exitX=0.503;exitY=0;exitDx=0;exitDy=0;exitPerimeter=0;entryX=1;entryY=0.856;entryDx=0;entryDy=0;entryPerimeter=0;" parent="1" source="Chyv1uTGt5TqhsLYrdFu-59" target="5em6XzOoX73Qv20cHfNX-5" edge="1">
          <mxGeometry width="160" relative="1" as="geometry">
            <mxPoint x="-535" y="-90" as="sourcePoint" />
            <mxPoint x="-700" y="-120" as="targetPoint" />
            <Array as="points">
              <mxPoint x="-644" y="-120" />
            </Array>
          </mxGeometry>
        </mxCell>
        <mxCell id="Chyv1uTGt5TqhsLYrdFu-89" value="&lt;div&gt;&lt;br&gt;&lt;/div&gt;&lt;div&gt;&lt;br&gt;&lt;/div&gt;" style="endArrow=block;endSize=16;endFill=0;html=1;rounded=0;exitX=0.5;exitY=0;exitDx=0;exitDy=0;entryX=0.687;entryY=1.003;entryDx=0;entryDy=0;entryPerimeter=0;" parent="1" source="Chyv1uTGt5TqhsLYrdFu-73" target="5em6XzOoX73Qv20cHfNX-5" edge="1">
          <mxGeometry x="-0.1304" y="-1" width="160" relative="1" as="geometry">
            <mxPoint x="10" y="160" as="sourcePoint" />
            <mxPoint x="-820" y="-20" as="targetPoint" />
            <mxPoint as="offset" />
          </mxGeometry>
        </mxCell>
        <mxCell id="NF-DhXXJ8hGUxy49Zucw-3" value="" style="endArrow=none;html=1;endSize=12;startArrow=diamondThin;startSize=14;startFill=0;edgeStyle=orthogonalEdgeStyle;align=left;verticalAlign=bottom;rounded=0;exitX=0.498;exitY=1.005;exitDx=0;exitDy=0;exitPerimeter=0;" parent="1" source="Chyv1uTGt5TqhsLYrdFu-71" edge="1">
          <mxGeometry x="-1" y="3" relative="1" as="geometry">
            <mxPoint x="-610" y="420" as="sourcePoint" />
            <mxPoint x="-920" y="290" as="targetPoint" />
            <Array as="points">
              <mxPoint x="-610" y="410" />
              <mxPoint x="-920" y="410" />
            </Array>
          </mxGeometry>
        </mxCell>
        <mxCell id="NF-DhXXJ8hGUxy49Zucw-4" value="*" style="edgeLabel;html=1;align=center;verticalAlign=middle;resizable=0;points=[];" parent="NF-DhXXJ8hGUxy49Zucw-3" vertex="1" connectable="0">
          <mxGeometry x="0.9551" y="6" relative="1" as="geometry">
            <mxPoint x="11" y="-1" as="offset" />
          </mxGeometry>
        </mxCell>
        <mxCell id="NF-DhXXJ8hGUxy49Zucw-5" value="UnaryMinus" style="swimlane;fontStyle=1;align=center;verticalAlign=top;childLayout=stackLayout;horizontal=1;startSize=26;horizontalStack=0;resizeParent=1;resizeParentMax=0;resizeLast=0;collapsible=1;marginBottom=0;whiteSpace=wrap;html=1;" parent="1" vertex="1">
          <mxGeometry x="-428.87" y="941" width="117.74" height="84" as="geometry" />
        </mxCell>
        <mxCell id="NF-DhXXJ8hGUxy49Zucw-6" value="&lt;div&gt;&lt;br&gt;&lt;/div&gt;" style="text;strokeColor=none;fillColor=none;align=left;verticalAlign=top;spacingLeft=4;spacingRight=4;overflow=hidden;rotatable=0;points=[[0,0.5],[1,0.5]];portConstraint=eastwest;whiteSpace=wrap;html=1;" parent="NF-DhXXJ8hGUxy49Zucw-5" vertex="1">
          <mxGeometry y="26" width="117.74" height="24" as="geometry" />
        </mxCell>
        <mxCell id="NF-DhXXJ8hGUxy49Zucw-7" value="" style="line;strokeWidth=1;fillColor=none;align=left;verticalAlign=middle;spacingTop=-1;spacingLeft=3;spacingRight=3;rotatable=0;labelPosition=right;points=[];portConstraint=eastwest;strokeColor=inherit;" parent="NF-DhXXJ8hGUxy49Zucw-5" vertex="1">
          <mxGeometry y="50" width="117.74" height="8" as="geometry" />
        </mxCell>
        <mxCell id="NF-DhXXJ8hGUxy49Zucw-8" value="&lt;div&gt;&lt;br&gt;&lt;/div&gt;&lt;div&gt;&lt;br&gt;&lt;/div&gt;" style="text;strokeColor=none;fillColor=none;align=left;verticalAlign=top;spacingLeft=4;spacingRight=4;overflow=hidden;rotatable=0;points=[[0,0.5],[1,0.5]];portConstraint=eastwest;whiteSpace=wrap;html=1;" parent="NF-DhXXJ8hGUxy49Zucw-5" vertex="1">
          <mxGeometry y="58" width="117.74" height="26" as="geometry" />
        </mxCell>
        <mxCell id="NF-DhXXJ8hGUxy49Zucw-11" value="" style="endArrow=block;dashed=1;endFill=0;endSize=12;html=1;rounded=0;exitX=0.5;exitY=0;exitDx=0;exitDy=0;entryX=0;entryY=0.5;entryDx=0;entryDy=0;" parent="1" source="Chyv1uTGt5TqhsLYrdFu-48" target="Chyv1uTGt5TqhsLYrdFu-52" edge="1">
          <mxGeometry width="160" relative="1" as="geometry">
            <mxPoint x="-760" y="375" as="sourcePoint" />
            <mxPoint x="-890" y="310" as="targetPoint" />
            <Array as="points">
              <mxPoint x="-1055" y="280" />
              <mxPoint x="-1110" y="280" />
              <mxPoint x="-1110" y="255" />
            </Array>
          </mxGeometry>
        </mxCell>
        <mxCell id="OmQNnyCMkDBNFYBYzlFr-2" value="NumberType" style="swimlane;fontStyle=1;align=center;verticalAlign=top;childLayout=stackLayout;horizontal=1;startSize=26;horizontalStack=0;resizeParent=1;resizeParentMax=0;resizeLast=0;collapsible=1;marginBottom=0;whiteSpace=wrap;html=1;" parent="1" vertex="1">
          <mxGeometry x="-69.99999999999999" y="200" width="120" height="86" as="geometry" />
        </mxCell>
        <mxCell id="OmQNnyCMkDBNFYBYzlFr-3" value="&lt;div&gt;&lt;br&gt;&lt;/div&gt;&lt;div&gt;&lt;br&gt;&lt;/div&gt;" style="text;strokeColor=none;fillColor=none;align=left;verticalAlign=top;spacingLeft=4;spacingRight=4;overflow=hidden;rotatable=0;points=[[0,0.5],[1,0.5]];portConstraint=eastwest;whiteSpace=wrap;html=1;" parent="OmQNnyCMkDBNFYBYzlFr-2" vertex="1">
          <mxGeometry y="26" width="120" height="26" as="geometry" />
        </mxCell>
        <mxCell id="OmQNnyCMkDBNFYBYzlFr-4" value="" style="line;strokeWidth=1;fillColor=none;align=left;verticalAlign=middle;spacingTop=-1;spacingLeft=3;spacingRight=3;rotatable=0;labelPosition=right;points=[];portConstraint=eastwest;strokeColor=inherit;" parent="OmQNnyCMkDBNFYBYzlFr-2" vertex="1">
          <mxGeometry y="52" width="120" height="8" as="geometry" />
        </mxCell>
        <mxCell id="OmQNnyCMkDBNFYBYzlFr-5" value="&lt;div&gt;&lt;br&gt;&lt;/div&gt;&lt;div&gt;&lt;br&gt;&lt;/div&gt;" style="text;strokeColor=none;fillColor=none;align=left;verticalAlign=top;spacingLeft=4;spacingRight=4;overflow=hidden;rotatable=0;points=[[0,0.5],[1,0.5]];portConstraint=eastwest;whiteSpace=wrap;html=1;" parent="OmQNnyCMkDBNFYBYzlFr-2" vertex="1">
          <mxGeometry y="60" width="120" height="26" as="geometry" />
        </mxCell>
        <mxCell id="OmQNnyCMkDBNFYBYzlFr-6" value="IntType" style="swimlane;fontStyle=1;align=center;verticalAlign=top;childLayout=stackLayout;horizontal=1;startSize=26;horizontalStack=0;resizeParent=1;resizeParentMax=0;resizeLast=0;collapsible=1;marginBottom=0;whiteSpace=wrap;html=1;" parent="1" vertex="1">
          <mxGeometry x="-69.99999999999999" y="100" width="120" height="86" as="geometry" />
        </mxCell>
        <mxCell id="OmQNnyCMkDBNFYBYzlFr-7" value="&lt;div&gt;&lt;br&gt;&lt;/div&gt;&lt;div&gt;&lt;br&gt;&lt;/div&gt;" style="text;strokeColor=none;fillColor=none;align=left;verticalAlign=top;spacingLeft=4;spacingRight=4;overflow=hidden;rotatable=0;points=[[0,0.5],[1,0.5]];portConstraint=eastwest;whiteSpace=wrap;html=1;" parent="OmQNnyCMkDBNFYBYzlFr-6" vertex="1">
          <mxGeometry y="26" width="120" height="26" as="geometry" />
        </mxCell>
        <mxCell id="OmQNnyCMkDBNFYBYzlFr-8" value="" style="line;strokeWidth=1;fillColor=none;align=left;verticalAlign=middle;spacingTop=-1;spacingLeft=3;spacingRight=3;rotatable=0;labelPosition=right;points=[];portConstraint=eastwest;strokeColor=inherit;" parent="OmQNnyCMkDBNFYBYzlFr-6" vertex="1">
          <mxGeometry y="52" width="120" height="8" as="geometry" />
        </mxCell>
        <mxCell id="OmQNnyCMkDBNFYBYzlFr-9" value="&lt;div&gt;&lt;br&gt;&lt;/div&gt;&lt;div&gt;&lt;br&gt;&lt;/div&gt;" style="text;strokeColor=none;fillColor=none;align=left;verticalAlign=top;spacingLeft=4;spacingRight=4;overflow=hidden;rotatable=0;points=[[0,0.5],[1,0.5]];portConstraint=eastwest;whiteSpace=wrap;html=1;" parent="OmQNnyCMkDBNFYBYzlFr-6" vertex="1">
          <mxGeometry y="60" width="120" height="26" as="geometry" />
        </mxCell>
        <mxCell id="OmQNnyCMkDBNFYBYzlFr-10" value="CharType" style="swimlane;fontStyle=1;align=center;verticalAlign=top;childLayout=stackLayout;horizontal=1;startSize=26;horizontalStack=0;resizeParent=1;resizeParentMax=0;resizeLast=0;collapsible=1;marginBottom=0;whiteSpace=wrap;html=1;" parent="1" vertex="1">
          <mxGeometry x="-69.99999999999999" y="400" width="120" height="86" as="geometry" />
        </mxCell>
        <mxCell id="OmQNnyCMkDBNFYBYzlFr-11" value="&lt;div&gt;&lt;br&gt;&lt;/div&gt;&lt;div&gt;&lt;br&gt;&lt;/div&gt;" style="text;strokeColor=none;fillColor=none;align=left;verticalAlign=top;spacingLeft=4;spacingRight=4;overflow=hidden;rotatable=0;points=[[0,0.5],[1,0.5]];portConstraint=eastwest;whiteSpace=wrap;html=1;" parent="OmQNnyCMkDBNFYBYzlFr-10" vertex="1">
          <mxGeometry y="26" width="120" height="26" as="geometry" />
        </mxCell>
        <mxCell id="OmQNnyCMkDBNFYBYzlFr-12" value="" style="line;strokeWidth=1;fillColor=none;align=left;verticalAlign=middle;spacingTop=-1;spacingLeft=3;spacingRight=3;rotatable=0;labelPosition=right;points=[];portConstraint=eastwest;strokeColor=inherit;" parent="OmQNnyCMkDBNFYBYzlFr-10" vertex="1">
          <mxGeometry y="52" width="120" height="8" as="geometry" />
        </mxCell>
        <mxCell id="OmQNnyCMkDBNFYBYzlFr-13" value="&lt;div&gt;&lt;br&gt;&lt;/div&gt;&lt;div&gt;&lt;br&gt;&lt;/div&gt;" style="text;strokeColor=none;fillColor=none;align=left;verticalAlign=top;spacingLeft=4;spacingRight=4;overflow=hidden;rotatable=0;points=[[0,0.5],[1,0.5]];portConstraint=eastwest;whiteSpace=wrap;html=1;" parent="OmQNnyCMkDBNFYBYzlFr-10" vertex="1">
          <mxGeometry y="60" width="120" height="26" as="geometry" />
        </mxCell>
        <mxCell id="OmQNnyCMkDBNFYBYzlFr-14" value="ArrayType" style="swimlane;fontStyle=1;align=center;verticalAlign=top;childLayout=stackLayout;horizontal=1;startSize=26;horizontalStack=0;resizeParent=1;resizeParentMax=0;resizeLast=0;collapsible=1;marginBottom=0;whiteSpace=wrap;html=1;" parent="1" vertex="1">
          <mxGeometry x="-69.99999999999999" y="504" width="120" height="86" as="geometry" />
        </mxCell>
        <mxCell id="OmQNnyCMkDBNFYBYzlFr-15" value="+ arraySize : int" style="text;strokeColor=none;fillColor=none;align=left;verticalAlign=top;spacingLeft=4;spacingRight=4;overflow=hidden;rotatable=0;points=[[0,0.5],[1,0.5]];portConstraint=eastwest;whiteSpace=wrap;html=1;" parent="OmQNnyCMkDBNFYBYzlFr-14" vertex="1">
          <mxGeometry y="26" width="120" height="26" as="geometry" />
        </mxCell>
        <mxCell id="OmQNnyCMkDBNFYBYzlFr-16" value="" style="line;strokeWidth=1;fillColor=none;align=left;verticalAlign=middle;spacingTop=-1;spacingLeft=3;spacingRight=3;rotatable=0;labelPosition=right;points=[];portConstraint=eastwest;strokeColor=inherit;" parent="OmQNnyCMkDBNFYBYzlFr-14" vertex="1">
          <mxGeometry y="52" width="120" height="8" as="geometry" />
        </mxCell>
        <mxCell id="OmQNnyCMkDBNFYBYzlFr-17" value="&lt;div&gt;&lt;br&gt;&lt;/div&gt;&lt;div&gt;&lt;br&gt;&lt;/div&gt;" style="text;strokeColor=none;fillColor=none;align=left;verticalAlign=top;spacingLeft=4;spacingRight=4;overflow=hidden;rotatable=0;points=[[0,0.5],[1,0.5]];portConstraint=eastwest;whiteSpace=wrap;html=1;" parent="OmQNnyCMkDBNFYBYzlFr-14" vertex="1">
          <mxGeometry y="60" width="120" height="26" as="geometry" />
        </mxCell>
        <mxCell id="OmQNnyCMkDBNFYBYzlFr-18" value="" style="endArrow=block;dashed=1;endFill=0;endSize=12;html=1;rounded=0;exitX=-0.004;exitY=0.542;exitDx=0;exitDy=0;entryX=1;entryY=0.5;entryDx=0;entryDy=0;exitPerimeter=0;" parent="1" source="OmQNnyCMkDBNFYBYzlFr-7" target="N4AWmAxjkQPShpaZA549-1" edge="1">
          <mxGeometry width="160" relative="1" as="geometry">
            <mxPoint x="-69.75999999999999" y="270" as="sourcePoint" />
            <mxPoint x="-174.76" y="145" as="targetPoint" />
            <Array as="points">
              <mxPoint x="-100" y="140" />
              <mxPoint x="-100" y="196" />
            </Array>
          </mxGeometry>
        </mxCell>
        <mxCell id="OmQNnyCMkDBNFYBYzlFr-19" value="" style="endArrow=block;dashed=1;endFill=0;endSize=12;html=1;rounded=0;entryX=1;entryY=0.5;entryDx=0;entryDy=0;exitX=-0.003;exitY=0.456;exitDx=0;exitDy=0;exitPerimeter=0;" parent="1" source="OmQNnyCMkDBNFYBYzlFr-3" target="N4AWmAxjkQPShpaZA549-1" edge="1">
          <mxGeometry width="160" relative="1" as="geometry">
            <mxPoint x="-64.75999999999999" y="110" as="sourcePoint" />
            <mxPoint x="-174.76" y="145" as="targetPoint" />
            <Array as="points">
              <mxPoint x="-100" y="238" />
              <mxPoint x="-100" y="196" />
            </Array>
          </mxGeometry>
        </mxCell>
        <mxCell id="OmQNnyCMkDBNFYBYzlFr-20" value="" style="endArrow=block;dashed=1;endFill=0;endSize=12;html=1;rounded=0;exitX=0;exitY=0.538;exitDx=0;exitDy=0;entryX=1;entryY=0.5;entryDx=0;entryDy=0;exitPerimeter=0;" parent="1" source="OmQNnyCMkDBNFYBYzlFr-11" target="N4AWmAxjkQPShpaZA549-1" edge="1">
          <mxGeometry width="160" relative="1" as="geometry">
            <mxPoint x="-14.759999999999998" y="-1" as="sourcePoint" />
            <mxPoint x="-174.76" y="145" as="targetPoint" />
            <Array as="points">
              <mxPoint x="-100" y="440" />
              <mxPoint x="-100" y="196" />
            </Array>
          </mxGeometry>
        </mxCell>
        <mxCell id="OmQNnyCMkDBNFYBYzlFr-21" value="" style="endArrow=block;dashed=1;endFill=0;endSize=12;html=1;rounded=0;entryX=1;entryY=0.5;entryDx=0;entryDy=0;exitX=0;exitY=0.5;exitDx=0;exitDy=0;" parent="1" source="OmQNnyCMkDBNFYBYzlFr-15" target="N4AWmAxjkQPShpaZA549-1" edge="1">
          <mxGeometry width="160" relative="1" as="geometry">
            <mxPoint x="-64.75999999999999" y="460" as="sourcePoint" />
            <mxPoint x="-174.76" y="145" as="targetPoint" />
            <Array as="points">
              <mxPoint x="-100" y="543" />
              <mxPoint x="-100" y="196" />
            </Array>
          </mxGeometry>
        </mxCell>
        <mxCell id="OmQNnyCMkDBNFYBYzlFr-22" value="" style="endArrow=none;html=1;endSize=12;startArrow=diamondThin;startSize=14;startFill=0;edgeStyle=orthogonalEdgeStyle;align=left;verticalAlign=bottom;rounded=0;exitX=0.5;exitY=1;exitDx=0;exitDy=0;entryX=0.453;entryY=-0.001;entryDx=0;entryDy=0;entryPerimeter=0;" parent="1" source="Chyv1uTGt5TqhsLYrdFu-52" target="5em6XzOoX73Qv20cHfNX-2" edge="1">
          <mxGeometry x="-1" y="3" relative="1" as="geometry">
            <mxPoint x="-920" y="268" as="sourcePoint" />
            <mxPoint x="-580" y="600" as="targetPoint" />
            <Array as="points">
              <mxPoint x="-950" y="430" />
              <mxPoint x="-571" y="430" />
              <mxPoint x="-571" y="630" />
            </Array>
          </mxGeometry>
        </mxCell>
        <mxCell id="OmQNnyCMkDBNFYBYzlFr-23" value="1..*" style="edgeLabel;html=1;align=center;verticalAlign=middle;resizable=0;points=[];" parent="OmQNnyCMkDBNFYBYzlFr-22" vertex="1" connectable="0">
          <mxGeometry x="0.9551" y="6" relative="1" as="geometry">
            <mxPoint x="4" y="5" as="offset" />
          </mxGeometry>
        </mxCell>
        <mxCell id="OmQNnyCMkDBNFYBYzlFr-24" value="While" style="swimlane;fontStyle=1;align=center;verticalAlign=top;childLayout=stackLayout;horizontal=1;startSize=26;horizontalStack=0;resizeParent=1;resizeParentMax=0;resizeLast=0;collapsible=1;marginBottom=0;whiteSpace=wrap;html=1;" parent="1" vertex="1">
          <mxGeometry x="-1220" y="304" width="100" height="84" as="geometry" />
        </mxCell>
        <mxCell id="OmQNnyCMkDBNFYBYzlFr-25" value="&lt;div&gt;&lt;br&gt;&lt;/div&gt;&lt;div&gt;&lt;br&gt;&lt;/div&gt;" style="text;strokeColor=none;fillColor=none;align=left;verticalAlign=top;spacingLeft=4;spacingRight=4;overflow=hidden;rotatable=0;points=[[0,0.5],[1,0.5]];portConstraint=eastwest;whiteSpace=wrap;html=1;" parent="OmQNnyCMkDBNFYBYzlFr-24" vertex="1">
          <mxGeometry y="26" width="100" height="24" as="geometry" />
        </mxCell>
        <mxCell id="OmQNnyCMkDBNFYBYzlFr-26" value="" style="line;strokeWidth=1;fillColor=none;align=left;verticalAlign=middle;spacingTop=-1;spacingLeft=3;spacingRight=3;rotatable=0;labelPosition=right;points=[];portConstraint=eastwest;strokeColor=inherit;" parent="OmQNnyCMkDBNFYBYzlFr-24" vertex="1">
          <mxGeometry y="50" width="100" height="8" as="geometry" />
        </mxCell>
        <mxCell id="OmQNnyCMkDBNFYBYzlFr-27" value="&lt;div&gt;&lt;br&gt;&lt;/div&gt;&lt;div&gt;&lt;br&gt;&lt;/div&gt;" style="text;strokeColor=none;fillColor=none;align=left;verticalAlign=top;spacingLeft=4;spacingRight=4;overflow=hidden;rotatable=0;points=[[0,0.5],[1,0.5]];portConstraint=eastwest;whiteSpace=wrap;html=1;" parent="OmQNnyCMkDBNFYBYzlFr-24" vertex="1">
          <mxGeometry y="58" width="100" height="26" as="geometry" />
        </mxCell>
        <mxCell id="OmQNnyCMkDBNFYBYzlFr-28" value="" style="endArrow=block;dashed=1;endFill=0;endSize=12;html=1;rounded=0;exitX=0.5;exitY=0;exitDx=0;exitDy=0;entryX=0;entryY=0.5;entryDx=0;entryDy=0;" parent="1" source="OmQNnyCMkDBNFYBYzlFr-24" target="Chyv1uTGt5TqhsLYrdFu-52" edge="1">
          <mxGeometry width="160" relative="1" as="geometry">
            <mxPoint x="-1200" y="282" as="sourcePoint" />
            <mxPoint x="-1070" y="220" as="targetPoint" />
            <Array as="points">
              <mxPoint x="-1170" y="280" />
              <mxPoint x="-1110" y="280" />
              <mxPoint x="-1110" y="255" />
            </Array>
          </mxGeometry>
        </mxCell>
        <mxCell id="OmQNnyCMkDBNFYBYzlFr-29" value="" style="endArrow=none;html=1;endSize=12;startArrow=diamondThin;startSize=14;startFill=0;edgeStyle=orthogonalEdgeStyle;align=left;verticalAlign=bottom;rounded=0;exitX=0.303;exitY=1.004;exitDx=0;exitDy=0;exitPerimeter=0;" parent="1" source="Chyv1uTGt5TqhsLYrdFu-51" edge="1">
          <mxGeometry x="-1" y="3" relative="1" as="geometry">
            <mxPoint x="-1170" y="420" as="sourcePoint" />
            <mxPoint x="-1000" y="220" as="targetPoint" />
            <Array as="points">
              <mxPoint x="-1073" y="430" />
              <mxPoint x="-1270" y="430" />
              <mxPoint x="-1270" y="200" />
              <mxPoint x="-1000" y="200" />
            </Array>
          </mxGeometry>
        </mxCell>
        <mxCell id="OmQNnyCMkDBNFYBYzlFr-30" value="*" style="edgeLabel;html=1;align=center;verticalAlign=middle;resizable=0;points=[];" parent="OmQNnyCMkDBNFYBYzlFr-29" vertex="1" connectable="0">
          <mxGeometry x="0.9551" y="6" relative="1" as="geometry">
            <mxPoint x="3" y="-4" as="offset" />
          </mxGeometry>
        </mxCell>
        <mxCell id="ObivhLdRkOrZMCO8oqJg-3" value="then / else" style="edgeLabel;html=1;align=center;verticalAlign=middle;resizable=0;points=[];" parent="OmQNnyCMkDBNFYBYzlFr-29" vertex="1" connectable="0">
          <mxGeometry x="-0.8065" y="3" relative="1" as="geometry">
            <mxPoint x="20" y="7" as="offset" />
          </mxGeometry>
        </mxCell>
        <mxCell id="OmQNnyCMkDBNFYBYzlFr-31" value="" style="endArrow=none;html=1;endSize=12;startArrow=diamondThin;startSize=14;startFill=0;edgeStyle=orthogonalEdgeStyle;align=left;verticalAlign=bottom;rounded=0;entryX=0;entryY=0.25;entryDx=0;entryDy=0;exitX=0.348;exitY=1.015;exitDx=0;exitDy=0;exitPerimeter=0;" parent="1" source="OmQNnyCMkDBNFYBYzlFr-27" target="Chyv1uTGt5TqhsLYrdFu-52" edge="1">
          <mxGeometry x="-1" y="3" relative="1" as="geometry">
            <mxPoint x="-1290" y="430" as="sourcePoint" />
            <mxPoint x="-980" y="243" as="targetPoint" />
            <Array as="points">
              <mxPoint x="-1185" y="410" />
              <mxPoint x="-1240" y="410" />
              <mxPoint x="-1240" y="233" />
              <mxPoint x="-1020" y="233" />
            </Array>
          </mxGeometry>
        </mxCell>
        <mxCell id="OmQNnyCMkDBNFYBYzlFr-32" value="*" style="edgeLabel;html=1;align=center;verticalAlign=middle;resizable=0;points=[];" parent="OmQNnyCMkDBNFYBYzlFr-31" vertex="1" connectable="0">
          <mxGeometry x="0.9551" y="6" relative="1" as="geometry">
            <mxPoint x="-1" y="14" as="offset" />
          </mxGeometry>
        </mxCell>
        <mxCell id="ObivhLdRkOrZMCO8oqJg-2" value="then" style="edgeLabel;html=1;align=center;verticalAlign=middle;resizable=0;points=[];" parent="OmQNnyCMkDBNFYBYzlFr-31" vertex="1" connectable="0">
          <mxGeometry x="-0.7922" y="-1" relative="1" as="geometry">
            <mxPoint x="12" y="-9" as="offset" />
          </mxGeometry>
        </mxCell>
        <mxCell id="OmQNnyCMkDBNFYBYzlFr-38" value="Cast" style="swimlane;fontStyle=1;align=center;verticalAlign=top;childLayout=stackLayout;horizontal=1;startSize=26;horizontalStack=0;resizeParent=1;resizeParentMax=0;resizeLast=0;collapsible=1;marginBottom=0;whiteSpace=wrap;html=1;" parent="1" vertex="1">
          <mxGeometry x="-290" y="525" width="90" height="60" as="geometry" />
        </mxCell>
        <mxCell id="OmQNnyCMkDBNFYBYzlFr-39" value="&lt;br&gt;&lt;div&gt;&lt;br&gt;&lt;/div&gt;" style="text;strokeColor=none;fillColor=none;align=left;verticalAlign=top;spacingLeft=4;spacingRight=4;overflow=hidden;rotatable=0;points=[[0,0.5],[1,0.5]];portConstraint=eastwest;whiteSpace=wrap;html=1;" parent="OmQNnyCMkDBNFYBYzlFr-38" vertex="1">
          <mxGeometry y="26" width="90" height="14" as="geometry" />
        </mxCell>
        <mxCell id="OmQNnyCMkDBNFYBYzlFr-40" value="" style="line;strokeWidth=1;fillColor=none;align=left;verticalAlign=middle;spacingTop=-1;spacingLeft=3;spacingRight=3;rotatable=0;labelPosition=right;points=[];portConstraint=eastwest;strokeColor=inherit;" parent="OmQNnyCMkDBNFYBYzlFr-38" vertex="1">
          <mxGeometry y="40" width="90" height="8" as="geometry" />
        </mxCell>
        <mxCell id="OmQNnyCMkDBNFYBYzlFr-41" value="&lt;div&gt;&lt;br&gt;&lt;/div&gt;&lt;div&gt;&lt;br&gt;&lt;/div&gt;" style="text;strokeColor=none;fillColor=none;align=left;verticalAlign=top;spacingLeft=4;spacingRight=4;overflow=hidden;rotatable=0;points=[[0,0.5],[1,0.5]];portConstraint=eastwest;whiteSpace=wrap;html=1;" parent="OmQNnyCMkDBNFYBYzlFr-38" vertex="1">
          <mxGeometry y="48" width="90" height="12" as="geometry" />
        </mxCell>
        <mxCell id="OmQNnyCMkDBNFYBYzlFr-43" value="" style="endArrow=block;dashed=1;endFill=0;endSize=12;html=1;rounded=0;entryX=0.75;entryY=0;entryDx=0;entryDy=0;exitX=0;exitY=0.25;exitDx=0;exitDy=0;" parent="1" source="OmQNnyCMkDBNFYBYzlFr-38" target="5em6XzOoX73Qv20cHfNX-2" edge="1">
          <mxGeometry width="160" relative="1" as="geometry">
            <mxPoint x="-190" y="460" as="sourcePoint" />
            <mxPoint x="-520.075" y="630.1101799999997" as="targetPoint" />
            <Array as="points">
              <mxPoint x="-500" y="540" />
              <mxPoint x="-500" y="570" />
            </Array>
          </mxGeometry>
        </mxCell>
        <mxCell id="qFzqj4WPiyivSUaZ2Au3-1" value="UnaryNot" style="swimlane;fontStyle=1;align=center;verticalAlign=top;childLayout=stackLayout;horizontal=1;startSize=26;horizontalStack=0;resizeParent=1;resizeParentMax=0;resizeLast=0;collapsible=1;marginBottom=0;whiteSpace=wrap;html=1;" parent="1" vertex="1">
          <mxGeometry x="-210" y="840" width="105.24" height="84" as="geometry" />
        </mxCell>
        <mxCell id="qFzqj4WPiyivSUaZ2Au3-2" value="&lt;div&gt;&lt;br&gt;&lt;/div&gt;" style="text;strokeColor=none;fillColor=none;align=left;verticalAlign=top;spacingLeft=4;spacingRight=4;overflow=hidden;rotatable=0;points=[[0,0.5],[1,0.5]];portConstraint=eastwest;whiteSpace=wrap;html=1;" parent="qFzqj4WPiyivSUaZ2Au3-1" vertex="1">
          <mxGeometry y="26" width="105.24" height="24" as="geometry" />
        </mxCell>
        <mxCell id="qFzqj4WPiyivSUaZ2Au3-3" value="" style="line;strokeWidth=1;fillColor=none;align=left;verticalAlign=middle;spacingTop=-1;spacingLeft=3;spacingRight=3;rotatable=0;labelPosition=right;points=[];portConstraint=eastwest;strokeColor=inherit;" parent="qFzqj4WPiyivSUaZ2Au3-1" vertex="1">
          <mxGeometry y="50" width="105.24" height="8" as="geometry" />
        </mxCell>
        <mxCell id="qFzqj4WPiyivSUaZ2Au3-4" value="&lt;div&gt;&lt;br&gt;&lt;/div&gt;&lt;div&gt;&lt;br&gt;&lt;/div&gt;" style="text;strokeColor=none;fillColor=none;align=left;verticalAlign=top;spacingLeft=4;spacingRight=4;overflow=hidden;rotatable=0;points=[[0,0.5],[1,0.5]];portConstraint=eastwest;whiteSpace=wrap;html=1;" parent="qFzqj4WPiyivSUaZ2Au3-1" vertex="1">
          <mxGeometry y="58" width="105.24" height="26" as="geometry" />
        </mxCell>
        <mxCell id="qFzqj4WPiyivSUaZ2Au3-6" value="" style="endArrow=none;html=1;endSize=12;startArrow=diamondThin;startSize=14;startFill=0;edgeStyle=orthogonalEdgeStyle;align=left;verticalAlign=bottom;rounded=0;exitX=0;exitY=0.5;exitDx=0;exitDy=0;entryX=0.901;entryY=0;entryDx=0;entryDy=0;entryPerimeter=0;" parent="1" source="OmQNnyCMkDBNFYBYzlFr-39" target="5em6XzOoX73Qv20cHfNX-2" edge="1">
          <mxGeometry x="-1" y="3" relative="1" as="geometry">
            <mxPoint x="-565" y="78" as="sourcePoint" />
            <mxPoint x="-450" y="610" as="targetPoint" />
            <Array as="points">
              <mxPoint x="-464" y="558" />
              <mxPoint x="-464" y="630" />
            </Array>
          </mxGeometry>
        </mxCell>
        <mxCell id="qFzqj4WPiyivSUaZ2Au3-7" value="1" style="edgeLabel;html=1;align=center;verticalAlign=middle;resizable=0;points=[];" parent="qFzqj4WPiyivSUaZ2Au3-6" vertex="1" connectable="0">
          <mxGeometry x="0.9551" y="6" relative="1" as="geometry">
            <mxPoint x="-1" y="-7" as="offset" />
          </mxGeometry>
        </mxCell>
        <mxCell id="qFzqj4WPiyivSUaZ2Au3-8" value="" style="endArrow=none;html=1;endSize=12;startArrow=diamondThin;startSize=14;startFill=0;edgeStyle=orthogonalEdgeStyle;align=left;verticalAlign=bottom;rounded=0;entryX=0.75;entryY=1;entryDx=0;entryDy=0;" parent="1" target="N4AWmAxjkQPShpaZA549-1" edge="1">
          <mxGeometry x="-1" y="3" relative="1" as="geometry">
            <mxPoint x="-250" y="525" as="sourcePoint" />
            <mxPoint x="-390" y="270" as="targetPoint" />
            <Array as="points">
              <mxPoint x="-250" y="525" />
            </Array>
          </mxGeometry>
        </mxCell>
        <mxCell id="qFzqj4WPiyivSUaZ2Au3-9" value="1" style="edgeLabel;html=1;align=center;verticalAlign=middle;resizable=0;points=[];" parent="qFzqj4WPiyivSUaZ2Au3-8" vertex="1" connectable="0">
          <mxGeometry x="0.9551" y="6" relative="1" as="geometry">
            <mxPoint x="13" y="4" as="offset" />
          </mxGeometry>
        </mxCell>
        <mxCell id="qFzqj4WPiyivSUaZ2Au3-10" value="" style="endArrow=block;dashed=1;endFill=0;endSize=12;html=1;rounded=0;exitX=0.5;exitY=0;exitDx=0;exitDy=0;entryX=0.5;entryY=1;entryDx=0;entryDy=0;" parent="1" source="qFzqj4WPiyivSUaZ2Au3-1" target="5em6XzOoX73Qv20cHfNX-2" edge="1">
          <mxGeometry width="160" relative="1" as="geometry">
            <mxPoint x="-274.52" y="799.91" as="sourcePoint" />
            <mxPoint x="-559.52" y="730" as="targetPoint" />
            <Array as="points">
              <mxPoint x="-157" y="800" />
              <mxPoint x="-560" y="800" />
            </Array>
          </mxGeometry>
        </mxCell>
        <mxCell id="qFzqj4WPiyivSUaZ2Au3-11" value="" style="endArrow=none;html=1;endSize=12;startArrow=diamondThin;startSize=14;startFill=0;edgeStyle=orthogonalEdgeStyle;align=left;verticalAlign=bottom;rounded=0;exitX=1;exitY=0.5;exitDx=0;exitDy=0;entryX=1.001;entryY=0.854;entryDx=0;entryDy=0;entryPerimeter=0;" parent="1" source="qFzqj4WPiyivSUaZ2Au3-2" target="5em6XzOoX73Qv20cHfNX-2" edge="1">
          <mxGeometry x="-1" y="3" relative="1" as="geometry">
            <mxPoint x="-270.52" y="899.91" as="sourcePoint" />
            <mxPoint x="-437.02" y="704.9775" as="targetPoint" />
            <Array as="points">
              <mxPoint x="-80" y="878" />
              <mxPoint x="-80" y="740" />
              <mxPoint x="-440" y="740" />
            </Array>
          </mxGeometry>
        </mxCell>
        <mxCell id="qFzqj4WPiyivSUaZ2Au3-12" value="1" style="edgeLabel;html=1;align=center;verticalAlign=middle;resizable=0;points=[];" parent="qFzqj4WPiyivSUaZ2Au3-11" vertex="1" connectable="0">
          <mxGeometry x="0.9551" y="6" relative="1" as="geometry">
            <mxPoint x="-15" y="-3" as="offset" />
          </mxGeometry>
        </mxCell>
        <mxCell id="N4AWmAxjkQPShpaZA549-4" value="1" style="edgeLabel;html=1;align=center;verticalAlign=middle;resizable=0;points=[];" parent="qFzqj4WPiyivSUaZ2Au3-11" vertex="1" connectable="0">
          <mxGeometry x="0.9189" y="1" relative="1" as="geometry">
            <mxPoint x="-11" y="9" as="offset" />
          </mxGeometry>
        </mxCell>
        <mxCell id="qFzqj4WPiyivSUaZ2Au3-13" value="Logic" style="swimlane;fontStyle=1;align=center;verticalAlign=top;childLayout=stackLayout;horizontal=1;startSize=26;horizontalStack=0;resizeParent=1;resizeParentMax=0;resizeLast=0;collapsible=1;marginBottom=0;whiteSpace=wrap;html=1;" parent="1" vertex="1">
          <mxGeometry x="-804.52" y="938" width="114.52" height="86" as="geometry" />
        </mxCell>
        <mxCell id="qFzqj4WPiyivSUaZ2Au3-14" value="+ opName: String" style="text;strokeColor=none;fillColor=none;align=left;verticalAlign=top;spacingLeft=4;spacingRight=4;overflow=hidden;rotatable=0;points=[[0,0.5],[1,0.5]];portConstraint=eastwest;whiteSpace=wrap;html=1;" parent="qFzqj4WPiyivSUaZ2Au3-13" vertex="1">
          <mxGeometry y="26" width="114.52" height="26" as="geometry" />
        </mxCell>
        <mxCell id="qFzqj4WPiyivSUaZ2Au3-15" value="" style="line;strokeWidth=1;fillColor=none;align=left;verticalAlign=middle;spacingTop=-1;spacingLeft=3;spacingRight=3;rotatable=0;labelPosition=right;points=[];portConstraint=eastwest;strokeColor=inherit;" parent="qFzqj4WPiyivSUaZ2Au3-13" vertex="1">
          <mxGeometry y="52" width="114.52" height="8" as="geometry" />
        </mxCell>
        <mxCell id="qFzqj4WPiyivSUaZ2Au3-16" value="&lt;div&gt;&lt;br&gt;&lt;/div&gt;&lt;div&gt;&lt;br&gt;&lt;/div&gt;" style="text;strokeColor=none;fillColor=none;align=left;verticalAlign=top;spacingLeft=4;spacingRight=4;overflow=hidden;rotatable=0;points=[[0,0.5],[1,0.5]];portConstraint=eastwest;whiteSpace=wrap;html=1;" parent="qFzqj4WPiyivSUaZ2Au3-13" vertex="1">
          <mxGeometry y="60" width="114.52" height="26" as="geometry" />
        </mxCell>
        <mxCell id="qFzqj4WPiyivSUaZ2Au3-17" value="Comparison" style="swimlane;fontStyle=1;align=center;verticalAlign=top;childLayout=stackLayout;horizontal=1;startSize=26;horizontalStack=0;resizeParent=1;resizeParentMax=0;resizeLast=0;collapsible=1;marginBottom=0;whiteSpace=wrap;html=1;" parent="1" vertex="1">
          <mxGeometry x="-650" y="939" width="139.52" height="86" as="geometry" />
        </mxCell>
        <mxCell id="qFzqj4WPiyivSUaZ2Au3-18" value="opName: String" style="text;strokeColor=none;fillColor=none;align=left;verticalAlign=top;spacingLeft=4;spacingRight=4;overflow=hidden;rotatable=0;points=[[0,0.5],[1,0.5]];portConstraint=eastwest;whiteSpace=wrap;html=1;" parent="qFzqj4WPiyivSUaZ2Au3-17" vertex="1">
          <mxGeometry y="26" width="139.52" height="26" as="geometry" />
        </mxCell>
        <mxCell id="qFzqj4WPiyivSUaZ2Au3-19" value="" style="line;strokeWidth=1;fillColor=none;align=left;verticalAlign=middle;spacingTop=-1;spacingLeft=3;spacingRight=3;rotatable=0;labelPosition=right;points=[];portConstraint=eastwest;strokeColor=inherit;" parent="qFzqj4WPiyivSUaZ2Au3-17" vertex="1">
          <mxGeometry y="52" width="139.52" height="8" as="geometry" />
        </mxCell>
        <mxCell id="qFzqj4WPiyivSUaZ2Au3-20" value="&lt;div&gt;&lt;br&gt;&lt;/div&gt;&lt;div&gt;&lt;br&gt;&lt;/div&gt;" style="text;strokeColor=none;fillColor=none;align=left;verticalAlign=top;spacingLeft=4;spacingRight=4;overflow=hidden;rotatable=0;points=[[0,0.5],[1,0.5]];portConstraint=eastwest;whiteSpace=wrap;html=1;" parent="qFzqj4WPiyivSUaZ2Au3-17" vertex="1">
          <mxGeometry y="60" width="139.52" height="26" as="geometry" />
        </mxCell>
        <mxCell id="qFzqj4WPiyivSUaZ2Au3-21" value="" style="endArrow=block;dashed=1;endFill=0;endSize=12;html=1;rounded=0;exitX=0.75;exitY=0;exitDx=0;exitDy=0;entryX=0.5;entryY=1;entryDx=0;entryDy=0;" parent="1" source="qFzqj4WPiyivSUaZ2Au3-13" target="5em6XzOoX73Qv20cHfNX-2" edge="1">
          <mxGeometry width="160" relative="1" as="geometry">
            <mxPoint x="-814.52" y="799.91" as="sourcePoint" />
            <mxPoint x="-559.52" y="730" as="targetPoint" />
            <Array as="points">
              <mxPoint x="-720" y="800" />
              <mxPoint x="-560" y="800" />
            </Array>
          </mxGeometry>
        </mxCell>
        <mxCell id="qFzqj4WPiyivSUaZ2Au3-22" value="" style="endArrow=block;dashed=1;endFill=0;endSize=12;html=1;rounded=0;exitX=0.646;exitY=0.001;exitDx=0;exitDy=0;entryX=0.5;entryY=1;entryDx=0;entryDy=0;exitPerimeter=0;" parent="1" source="qFzqj4WPiyivSUaZ2Au3-17" target="5em6XzOoX73Qv20cHfNX-2" edge="1">
          <mxGeometry width="160" relative="1" as="geometry">
            <mxPoint x="-804.52" y="809.91" as="sourcePoint" />
            <mxPoint x="-559.52" y="730" as="targetPoint" />
            <Array as="points">
              <mxPoint x="-560" y="800" />
            </Array>
          </mxGeometry>
        </mxCell>
        <mxCell id="qFzqj4WPiyivSUaZ2Au3-23" value="FunctionCall" style="swimlane;fontStyle=1;align=center;verticalAlign=top;childLayout=stackLayout;horizontal=1;startSize=26;horizontalStack=0;resizeParent=1;resizeParentMax=0;resizeLast=0;collapsible=1;marginBottom=0;whiteSpace=wrap;html=1;" parent="1" vertex="1">
          <mxGeometry x="-989.52" y="837" width="109.52" height="86" as="geometry" />
        </mxCell>
        <mxCell id="qFzqj4WPiyivSUaZ2Au3-24" value="&lt;div&gt;&lt;br&gt;&lt;/div&gt;&lt;div&gt;&lt;br&gt;&lt;/div&gt;" style="text;strokeColor=none;fillColor=none;align=left;verticalAlign=top;spacingLeft=4;spacingRight=4;overflow=hidden;rotatable=0;points=[[0,0.5],[1,0.5]];portConstraint=eastwest;whiteSpace=wrap;html=1;" parent="qFzqj4WPiyivSUaZ2Au3-23" vertex="1">
          <mxGeometry y="26" width="109.52" height="26" as="geometry" />
        </mxCell>
        <mxCell id="qFzqj4WPiyivSUaZ2Au3-25" value="" style="line;strokeWidth=1;fillColor=none;align=left;verticalAlign=middle;spacingTop=-1;spacingLeft=3;spacingRight=3;rotatable=0;labelPosition=right;points=[];portConstraint=eastwest;strokeColor=inherit;" parent="qFzqj4WPiyivSUaZ2Au3-23" vertex="1">
          <mxGeometry y="52" width="109.52" height="8" as="geometry" />
        </mxCell>
        <mxCell id="qFzqj4WPiyivSUaZ2Au3-26" value="&lt;div&gt;&lt;br&gt;&lt;/div&gt;&lt;div&gt;&lt;br&gt;&lt;/div&gt;" style="text;strokeColor=none;fillColor=none;align=left;verticalAlign=top;spacingLeft=4;spacingRight=4;overflow=hidden;rotatable=0;points=[[0,0.5],[1,0.5]];portConstraint=eastwest;whiteSpace=wrap;html=1;" parent="qFzqj4WPiyivSUaZ2Au3-23" vertex="1">
          <mxGeometry y="60" width="109.52" height="26" as="geometry" />
        </mxCell>
        <mxCell id="qFzqj4WPiyivSUaZ2Au3-27" value="" style="endArrow=none;html=1;endSize=12;startArrow=diamondThin;startSize=14;startFill=0;edgeStyle=orthogonalEdgeStyle;align=left;verticalAlign=bottom;rounded=0;exitX=0.5;exitY=0;exitDx=0;exitDy=0;entryX=-0.001;entryY=0.694;entryDx=0;entryDy=0;entryPerimeter=0;" parent="1" source="qFzqj4WPiyivSUaZ2Au3-23" target="5em6XzOoX73Qv20cHfNX-2" edge="1">
          <mxGeometry x="-1" y="3" relative="1" as="geometry">
            <mxPoint x="-989.52" y="799.91" as="sourcePoint" />
            <mxPoint x="-682" y="675" as="targetPoint" />
            <Array as="points">
              <mxPoint x="-935" y="720" />
              <mxPoint x="-680" y="720" />
            </Array>
          </mxGeometry>
        </mxCell>
        <mxCell id="qFzqj4WPiyivSUaZ2Au3-29" value="*" style="edgeLabel;html=1;align=center;verticalAlign=middle;resizable=0;points=[];" parent="qFzqj4WPiyivSUaZ2Au3-27" vertex="1" connectable="0">
          <mxGeometry x="0.9437" y="-6" relative="1" as="geometry">
            <mxPoint x="2" y="4" as="offset" />
          </mxGeometry>
        </mxCell>
        <mxCell id="qFzqj4WPiyivSUaZ2Au3-30" value="" style="endArrow=none;html=1;endSize=12;startArrow=diamondThin;startSize=14;startFill=0;edgeStyle=orthogonalEdgeStyle;align=left;verticalAlign=bottom;rounded=0;entryX=0.502;entryY=1.003;entryDx=0;entryDy=0;exitX=0.502;exitY=0.999;exitDx=0;exitDy=0;entryPerimeter=0;exitPerimeter=0;" parent="1" source="qFzqj4WPiyivSUaZ2Au3-26" target="Chyv1uTGt5TqhsLYrdFu-20" edge="1">
          <mxGeometry x="-1" y="3" relative="1" as="geometry">
            <mxPoint x="-179.52" y="623.91" as="sourcePoint" />
            <mxPoint x="-299.52" y="389.90999999999997" as="targetPoint" />
            <Array as="points">
              <mxPoint x="-934" y="1050" />
              <mxPoint x="-455" y="1050" />
              <mxPoint x="-455" y="970" />
              <mxPoint x="-455" y="970" />
            </Array>
          </mxGeometry>
        </mxCell>
        <mxCell id="qFzqj4WPiyivSUaZ2Au3-31" value="1" style="edgeLabel;html=1;align=center;verticalAlign=middle;resizable=0;points=[];" parent="qFzqj4WPiyivSUaZ2Au3-30" vertex="1" connectable="0">
          <mxGeometry x="0.9551" y="6" relative="1" as="geometry">
            <mxPoint x="-9" y="4" as="offset" />
          </mxGeometry>
        </mxCell>
        <mxCell id="qFzqj4WPiyivSUaZ2Au3-32" value="FieldAccess" style="swimlane;fontStyle=1;align=center;verticalAlign=top;childLayout=stackLayout;horizontal=1;startSize=26;horizontalStack=0;resizeParent=1;resizeParentMax=0;resizeLast=0;collapsible=1;marginBottom=0;whiteSpace=wrap;html=1;" parent="1" vertex="1">
          <mxGeometry x="-1150" y="690" width="120" height="86" as="geometry" />
        </mxCell>
        <mxCell id="qFzqj4WPiyivSUaZ2Au3-33" value="+ field: String" style="text;strokeColor=none;fillColor=none;align=left;verticalAlign=top;spacingLeft=4;spacingRight=4;overflow=hidden;rotatable=0;points=[[0,0.5],[1,0.5]];portConstraint=eastwest;whiteSpace=wrap;html=1;" parent="qFzqj4WPiyivSUaZ2Au3-32" vertex="1">
          <mxGeometry y="26" width="120" height="26" as="geometry" />
        </mxCell>
        <mxCell id="qFzqj4WPiyivSUaZ2Au3-34" value="" style="line;strokeWidth=1;fillColor=none;align=left;verticalAlign=middle;spacingTop=-1;spacingLeft=3;spacingRight=3;rotatable=0;labelPosition=right;points=[];portConstraint=eastwest;strokeColor=inherit;" parent="qFzqj4WPiyivSUaZ2Au3-32" vertex="1">
          <mxGeometry y="52" width="120" height="8" as="geometry" />
        </mxCell>
        <mxCell id="qFzqj4WPiyivSUaZ2Au3-35" value="&lt;div&gt;&lt;br&gt;&lt;/div&gt;&lt;div&gt;&lt;br&gt;&lt;/div&gt;" style="text;strokeColor=none;fillColor=none;align=left;verticalAlign=top;spacingLeft=4;spacingRight=4;overflow=hidden;rotatable=0;points=[[0,0.5],[1,0.5]];portConstraint=eastwest;whiteSpace=wrap;html=1;" parent="qFzqj4WPiyivSUaZ2Au3-32" vertex="1">
          <mxGeometry y="60" width="120" height="26" as="geometry" />
        </mxCell>
        <mxCell id="qFzqj4WPiyivSUaZ2Au3-36" value="ArrayAccess" style="swimlane;fontStyle=1;align=center;verticalAlign=top;childLayout=stackLayout;horizontal=1;startSize=26;horizontalStack=0;resizeParent=1;resizeParentMax=0;resizeLast=0;collapsible=1;marginBottom=0;whiteSpace=wrap;html=1;" parent="1" vertex="1">
          <mxGeometry x="-1150" y="837" width="119" height="86" as="geometry" />
        </mxCell>
        <mxCell id="qFzqj4WPiyivSUaZ2Au3-37" value="&lt;div&gt;&lt;br&gt;&lt;/div&gt;&lt;div&gt;&lt;br&gt;&lt;/div&gt;" style="text;strokeColor=none;fillColor=none;align=left;verticalAlign=top;spacingLeft=4;spacingRight=4;overflow=hidden;rotatable=0;points=[[0,0.5],[1,0.5]];portConstraint=eastwest;whiteSpace=wrap;html=1;" parent="qFzqj4WPiyivSUaZ2Au3-36" vertex="1">
          <mxGeometry y="26" width="119" height="26" as="geometry" />
        </mxCell>
        <mxCell id="qFzqj4WPiyivSUaZ2Au3-38" value="" style="line;strokeWidth=1;fillColor=none;align=left;verticalAlign=middle;spacingTop=-1;spacingLeft=3;spacingRight=3;rotatable=0;labelPosition=right;points=[];portConstraint=eastwest;strokeColor=inherit;" parent="qFzqj4WPiyivSUaZ2Au3-36" vertex="1">
          <mxGeometry y="52" width="119" height="8" as="geometry" />
        </mxCell>
        <mxCell id="qFzqj4WPiyivSUaZ2Au3-39" value="&lt;div&gt;&lt;br&gt;&lt;/div&gt;&lt;div&gt;&lt;br&gt;&lt;/div&gt;" style="text;strokeColor=none;fillColor=none;align=left;verticalAlign=top;spacingLeft=4;spacingRight=4;overflow=hidden;rotatable=0;points=[[0,0.5],[1,0.5]];portConstraint=eastwest;whiteSpace=wrap;html=1;" parent="qFzqj4WPiyivSUaZ2Au3-36" vertex="1">
          <mxGeometry y="60" width="119" height="26" as="geometry" />
        </mxCell>
        <mxCell id="qFzqj4WPiyivSUaZ2Au3-40" value="" style="endArrow=block;dashed=1;endFill=0;endSize=12;html=1;rounded=0;entryX=0.5;entryY=1;entryDx=0;entryDy=0;exitX=0.5;exitY=0;exitDx=0;exitDy=0;" parent="1" source="qFzqj4WPiyivSUaZ2Au3-36" target="5em6XzOoX73Qv20cHfNX-2" edge="1">
          <mxGeometry width="160" relative="1" as="geometry">
            <mxPoint x="-1240" y="965.832" as="sourcePoint" />
            <mxPoint x="-559.52" y="730" as="targetPoint" />
            <Array as="points">
              <mxPoint x="-1090" y="800" />
              <mxPoint x="-560" y="800" />
            </Array>
          </mxGeometry>
        </mxCell>
        <mxCell id="qFzqj4WPiyivSUaZ2Au3-41" value="NumberLiteral" style="swimlane;fontStyle=1;align=center;verticalAlign=top;childLayout=stackLayout;horizontal=1;startSize=26;horizontalStack=0;resizeParent=1;resizeParentMax=0;resizeLast=0;collapsible=1;marginBottom=0;whiteSpace=wrap;html=1;" parent="1" vertex="1">
          <mxGeometry x="-347.74" y="842" width="115" height="84" as="geometry" />
        </mxCell>
        <mxCell id="qFzqj4WPiyivSUaZ2Au3-42" value="&lt;div&gt;&lt;br&gt;&lt;/div&gt;" style="text;strokeColor=none;fillColor=none;align=left;verticalAlign=top;spacingLeft=4;spacingRight=4;overflow=hidden;rotatable=0;points=[[0,0.5],[1,0.5]];portConstraint=eastwest;whiteSpace=wrap;html=1;" parent="qFzqj4WPiyivSUaZ2Au3-41" vertex="1">
          <mxGeometry y="26" width="115" height="24" as="geometry" />
        </mxCell>
        <mxCell id="qFzqj4WPiyivSUaZ2Au3-43" value="" style="line;strokeWidth=1;fillColor=none;align=left;verticalAlign=middle;spacingTop=-1;spacingLeft=3;spacingRight=3;rotatable=0;labelPosition=right;points=[];portConstraint=eastwest;strokeColor=inherit;" parent="qFzqj4WPiyivSUaZ2Au3-41" vertex="1">
          <mxGeometry y="50" width="115" height="8" as="geometry" />
        </mxCell>
        <mxCell id="qFzqj4WPiyivSUaZ2Au3-44" value="&lt;div&gt;&lt;br&gt;&lt;/div&gt;&lt;div&gt;&lt;br&gt;&lt;/div&gt;" style="text;strokeColor=none;fillColor=none;align=left;verticalAlign=top;spacingLeft=4;spacingRight=4;overflow=hidden;rotatable=0;points=[[0,0.5],[1,0.5]];portConstraint=eastwest;whiteSpace=wrap;html=1;" parent="qFzqj4WPiyivSUaZ2Au3-41" vertex="1">
          <mxGeometry y="58" width="115" height="26" as="geometry" />
        </mxCell>
        <mxCell id="qFzqj4WPiyivSUaZ2Au3-45" value="" style="endArrow=block;dashed=1;endFill=0;endSize=12;html=1;rounded=0;exitX=1;exitY=0.5;exitDx=0;exitDy=0;entryX=0.5;entryY=1;entryDx=0;entryDy=0;" parent="1" source="qFzqj4WPiyivSUaZ2Au3-35" target="5em6XzOoX73Qv20cHfNX-2" edge="1">
          <mxGeometry width="160" relative="1" as="geometry">
            <mxPoint x="-1159.52" y="808.9100000000004" as="sourcePoint" />
            <mxPoint x="-559.52" y="730" as="targetPoint" />
            <Array as="points">
              <mxPoint x="-990" y="763" />
              <mxPoint x="-990" y="800" />
              <mxPoint x="-900" y="800" />
              <mxPoint x="-560" y="800" />
            </Array>
          </mxGeometry>
        </mxCell>
        <mxCell id="qFzqj4WPiyivSUaZ2Au3-46" value="" style="endArrow=none;html=1;endSize=12;startArrow=diamondThin;startSize=14;startFill=0;edgeStyle=orthogonalEdgeStyle;align=left;verticalAlign=bottom;rounded=0;exitX=0;exitY=0.5;exitDx=0;exitDy=0;entryX=0;entryY=0.25;entryDx=0;entryDy=0;" parent="1" source="qFzqj4WPiyivSUaZ2Au3-37" target="5em6XzOoX73Qv20cHfNX-2" edge="1">
          <mxGeometry x="-1" y="3" relative="1" as="geometry">
            <mxPoint x="-1355" y="710" as="sourcePoint" />
            <mxPoint x="-700" y="640" as="targetPoint" />
            <Array as="points">
              <mxPoint x="-1180" y="876" />
              <mxPoint x="-1180" y="662" />
              <mxPoint x="-890" y="662" />
            </Array>
          </mxGeometry>
        </mxCell>
        <mxCell id="qFzqj4WPiyivSUaZ2Au3-47" value="2" style="edgeLabel;html=1;align=center;verticalAlign=middle;resizable=0;points=[];" parent="qFzqj4WPiyivSUaZ2Au3-46" vertex="1" connectable="0">
          <mxGeometry x="0.9551" y="6" relative="1" as="geometry">
            <mxPoint x="7" y="18" as="offset" />
          </mxGeometry>
        </mxCell>
        <mxCell id="qFzqj4WPiyivSUaZ2Au3-48" value="" style="endArrow=none;html=1;endSize=12;startArrow=diamondThin;startSize=14;startFill=0;edgeStyle=orthogonalEdgeStyle;align=left;verticalAlign=bottom;rounded=0;exitX=1;exitY=0.539;exitDx=0;exitDy=0;entryX=0;entryY=0.5;entryDx=0;entryDy=0;exitPerimeter=0;" parent="1" source="qFzqj4WPiyivSUaZ2Au3-33" target="5em6XzOoX73Qv20cHfNX-2" edge="1">
          <mxGeometry x="-1" y="3" relative="1" as="geometry">
            <mxPoint x="-1080" y="652" as="sourcePoint" />
            <mxPoint x="-700" y="670" as="targetPoint" />
            <Array as="points">
              <mxPoint x="-1000" y="730" />
              <mxPoint x="-1000" y="695" />
            </Array>
          </mxGeometry>
        </mxCell>
        <mxCell id="qFzqj4WPiyivSUaZ2Au3-49" value="1" style="edgeLabel;html=1;align=center;verticalAlign=middle;resizable=0;points=[];" parent="qFzqj4WPiyivSUaZ2Au3-48" vertex="1" connectable="0">
          <mxGeometry x="0.9551" y="6" relative="1" as="geometry">
            <mxPoint x="1" y="14" as="offset" />
          </mxGeometry>
        </mxCell>
        <mxCell id="qFzqj4WPiyivSUaZ2Au3-50" value="Return" style="swimlane;fontStyle=1;align=center;verticalAlign=top;childLayout=stackLayout;horizontal=1;startSize=26;horizontalStack=0;resizeParent=1;resizeParentMax=0;resizeLast=0;collapsible=1;marginBottom=0;whiteSpace=wrap;html=1;" parent="1" vertex="1">
          <mxGeometry x="-1169.5" y="126" width="90" height="60" as="geometry" />
        </mxCell>
        <mxCell id="qFzqj4WPiyivSUaZ2Au3-51" value="&lt;div&gt;&lt;br&gt;&lt;/div&gt;" style="text;strokeColor=none;fillColor=none;align=left;verticalAlign=top;spacingLeft=4;spacingRight=4;overflow=hidden;rotatable=0;points=[[0,0.5],[1,0.5]];portConstraint=eastwest;whiteSpace=wrap;html=1;" parent="qFzqj4WPiyivSUaZ2Au3-50" vertex="1">
          <mxGeometry y="26" width="90" height="14" as="geometry" />
        </mxCell>
        <mxCell id="qFzqj4WPiyivSUaZ2Au3-52" value="" style="line;strokeWidth=1;fillColor=none;align=left;verticalAlign=middle;spacingTop=-1;spacingLeft=3;spacingRight=3;rotatable=0;labelPosition=right;points=[];portConstraint=eastwest;strokeColor=inherit;" parent="qFzqj4WPiyivSUaZ2Au3-50" vertex="1">
          <mxGeometry y="40" width="90" height="8" as="geometry" />
        </mxCell>
        <mxCell id="qFzqj4WPiyivSUaZ2Au3-53" value="&lt;div&gt;&lt;br&gt;&lt;/div&gt;&lt;div&gt;&lt;br&gt;&lt;/div&gt;" style="text;strokeColor=none;fillColor=none;align=left;verticalAlign=top;spacingLeft=4;spacingRight=4;overflow=hidden;rotatable=0;points=[[0,0.5],[1,0.5]];portConstraint=eastwest;whiteSpace=wrap;html=1;" parent="qFzqj4WPiyivSUaZ2Au3-50" vertex="1">
          <mxGeometry y="48" width="90" height="12" as="geometry" />
        </mxCell>
        <mxCell id="qFzqj4WPiyivSUaZ2Au3-54" value="" style="endArrow=block;dashed=1;endFill=0;endSize=12;html=1;rounded=0;entryX=0.357;entryY=0;entryDx=0;entryDy=0;exitX=1;exitY=0.5;exitDx=0;exitDy=0;entryPerimeter=0;" parent="1" source="qFzqj4WPiyivSUaZ2Au3-51" target="Chyv1uTGt5TqhsLYrdFu-52" edge="1">
          <mxGeometry width="160" relative="1" as="geometry">
            <mxPoint x="-1070" y="109" as="sourcePoint" />
            <mxPoint x="-835" y="135" as="targetPoint" />
            <Array as="points">
              <mxPoint x="-970" y="160" />
            </Array>
          </mxGeometry>
        </mxCell>
        <mxCell id="qFzqj4WPiyivSUaZ2Au3-55" value="Write" style="swimlane;fontStyle=1;align=center;verticalAlign=top;childLayout=stackLayout;horizontal=1;startSize=26;horizontalStack=0;resizeParent=1;resizeParentMax=0;resizeLast=0;collapsible=1;marginBottom=0;whiteSpace=wrap;html=1;" parent="1" vertex="1">
          <mxGeometry x="-1079.52" y="513" width="90" height="84" as="geometry" />
        </mxCell>
        <mxCell id="qFzqj4WPiyivSUaZ2Au3-56" value="&lt;div&gt;&lt;br&gt;&lt;/div&gt;" style="text;strokeColor=none;fillColor=none;align=left;verticalAlign=top;spacingLeft=4;spacingRight=4;overflow=hidden;rotatable=0;points=[[0,0.5],[1,0.5]];portConstraint=eastwest;whiteSpace=wrap;html=1;" parent="qFzqj4WPiyivSUaZ2Au3-55" vertex="1">
          <mxGeometry y="26" width="90" height="24" as="geometry" />
        </mxCell>
        <mxCell id="qFzqj4WPiyivSUaZ2Au3-57" value="" style="line;strokeWidth=1;fillColor=none;align=left;verticalAlign=middle;spacingTop=-1;spacingLeft=3;spacingRight=3;rotatable=0;labelPosition=right;points=[];portConstraint=eastwest;strokeColor=inherit;" parent="qFzqj4WPiyivSUaZ2Au3-55" vertex="1">
          <mxGeometry y="50" width="90" height="8" as="geometry" />
        </mxCell>
        <mxCell id="qFzqj4WPiyivSUaZ2Au3-58" value="&lt;div&gt;&lt;br&gt;&lt;/div&gt;&lt;div&gt;&lt;br&gt;&lt;/div&gt;" style="text;strokeColor=none;fillColor=none;align=left;verticalAlign=top;spacingLeft=4;spacingRight=4;overflow=hidden;rotatable=0;points=[[0,0.5],[1,0.5]];portConstraint=eastwest;whiteSpace=wrap;html=1;" parent="qFzqj4WPiyivSUaZ2Au3-55" vertex="1">
          <mxGeometry y="58" width="90" height="26" as="geometry" />
        </mxCell>
        <mxCell id="qFzqj4WPiyivSUaZ2Au3-59" value="Assignment" style="swimlane;fontStyle=1;align=center;verticalAlign=top;childLayout=stackLayout;horizontal=1;startSize=26;horizontalStack=0;resizeParent=1;resizeParentMax=0;resizeLast=0;collapsible=1;marginBottom=0;whiteSpace=wrap;html=1;" parent="1" vertex="1">
          <mxGeometry x="-770" y="513" width="110" height="84" as="geometry" />
        </mxCell>
        <mxCell id="qFzqj4WPiyivSUaZ2Au3-60" value="&lt;div&gt;&lt;br&gt;&lt;/div&gt;" style="text;strokeColor=none;fillColor=none;align=left;verticalAlign=top;spacingLeft=4;spacingRight=4;overflow=hidden;rotatable=0;points=[[0,0.5],[1,0.5]];portConstraint=eastwest;whiteSpace=wrap;html=1;" parent="qFzqj4WPiyivSUaZ2Au3-59" vertex="1">
          <mxGeometry y="26" width="110" height="24" as="geometry" />
        </mxCell>
        <mxCell id="qFzqj4WPiyivSUaZ2Au3-61" value="" style="line;strokeWidth=1;fillColor=none;align=left;verticalAlign=middle;spacingTop=-1;spacingLeft=3;spacingRight=3;rotatable=0;labelPosition=right;points=[];portConstraint=eastwest;strokeColor=inherit;" parent="qFzqj4WPiyivSUaZ2Au3-59" vertex="1">
          <mxGeometry y="50" width="110" height="8" as="geometry" />
        </mxCell>
        <mxCell id="qFzqj4WPiyivSUaZ2Au3-62" value="&lt;div&gt;&lt;br&gt;&lt;/div&gt;&lt;div&gt;&lt;br&gt;&lt;/div&gt;" style="text;strokeColor=none;fillColor=none;align=left;verticalAlign=top;spacingLeft=4;spacingRight=4;overflow=hidden;rotatable=0;points=[[0,0.5],[1,0.5]];portConstraint=eastwest;whiteSpace=wrap;html=1;" parent="qFzqj4WPiyivSUaZ2Au3-59" vertex="1">
          <mxGeometry y="58" width="110" height="26" as="geometry" />
        </mxCell>
        <mxCell id="qFzqj4WPiyivSUaZ2Au3-63" value="" style="endArrow=none;html=1;endSize=12;startArrow=diamondThin;startSize=14;startFill=0;edgeStyle=orthogonalEdgeStyle;align=left;verticalAlign=bottom;rounded=0;exitX=0;exitY=0.5;exitDx=0;exitDy=0;entryX=0.35;entryY=-0.001;entryDx=0;entryDy=0;entryPerimeter=0;" parent="1" source="qFzqj4WPiyivSUaZ2Au3-51" target="5em6XzOoX73Qv20cHfNX-2" edge="1">
          <mxGeometry x="-1" y="3" relative="1" as="geometry">
            <mxPoint x="-1220" y="180" as="sourcePoint" />
            <mxPoint x="-580" y="600" as="targetPoint" />
            <Array as="points">
              <mxPoint x="-1300" y="159" />
              <mxPoint x="-1300" y="450" />
              <mxPoint x="-596" y="450" />
            </Array>
          </mxGeometry>
        </mxCell>
        <mxCell id="qFzqj4WPiyivSUaZ2Au3-64" value="1" style="edgeLabel;html=1;align=center;verticalAlign=middle;resizable=0;points=[];" parent="qFzqj4WPiyivSUaZ2Au3-63" vertex="1" connectable="0">
          <mxGeometry x="0.9551" y="6" relative="1" as="geometry">
            <mxPoint x="4" y="19" as="offset" />
          </mxGeometry>
        </mxCell>
        <mxCell id="qFzqj4WPiyivSUaZ2Au3-66" value="" style="endArrow=block;dashed=1;endFill=0;endSize=12;html=1;rounded=0;exitX=0.5;exitY=0;exitDx=0;exitDy=0;entryX=0.25;entryY=1;entryDx=0;entryDy=0;" parent="1" source="1-SI36wJG96T30TcwkW8-6" target="Chyv1uTGt5TqhsLYrdFu-52" edge="1">
          <mxGeometry width="160" relative="1" as="geometry">
            <mxPoint x="-1020" y="500" as="sourcePoint" />
            <mxPoint x="-1020" y="290" as="targetPoint" />
            <Array as="points">
              <mxPoint x="-865" y="490" />
              <mxPoint x="-985" y="490" />
            </Array>
          </mxGeometry>
        </mxCell>
        <mxCell id="qFzqj4WPiyivSUaZ2Au3-67" value="" style="endArrow=block;dashed=1;endFill=0;endSize=12;html=1;rounded=0;exitX=0.5;exitY=0;exitDx=0;exitDy=0;entryX=0.25;entryY=1;entryDx=0;entryDy=0;" parent="1" source="qFzqj4WPiyivSUaZ2Au3-59" target="Chyv1uTGt5TqhsLYrdFu-52" edge="1">
          <mxGeometry width="160" relative="1" as="geometry">
            <mxPoint x="-1270" y="520" as="sourcePoint" />
            <mxPoint x="-1020" y="290" as="targetPoint" />
            <Array as="points">
              <mxPoint x="-715" y="490" />
              <mxPoint x="-985" y="490" />
            </Array>
          </mxGeometry>
        </mxCell>
        <mxCell id="qFzqj4WPiyivSUaZ2Au3-68" value="" style="endArrow=none;html=1;endSize=12;startArrow=diamondThin;startSize=14;startFill=0;edgeStyle=orthogonalEdgeStyle;align=left;verticalAlign=bottom;rounded=0;entryX=1;entryY=0.75;entryDx=0;entryDy=0;exitX=-0.003;exitY=0.232;exitDx=0;exitDy=0;exitPerimeter=0;" parent="1" source="OmQNnyCMkDBNFYBYzlFr-17" target="N4AWmAxjkQPShpaZA549-1" edge="1">
          <mxGeometry x="-1" y="3" relative="1" as="geometry">
            <mxPoint x="-64.75999999999999" y="350" as="sourcePoint" />
            <mxPoint x="-175.0800000000006" y="162.94999999999982" as="targetPoint" />
            <Array as="points">
              <mxPoint x="-127" y="570" />
              <mxPoint x="-127" y="267" />
            </Array>
          </mxGeometry>
        </mxCell>
        <mxCell id="qFzqj4WPiyivSUaZ2Au3-69" value="1" style="edgeLabel;html=1;align=center;verticalAlign=middle;resizable=0;points=[];" parent="qFzqj4WPiyivSUaZ2Au3-68" vertex="1" connectable="0">
          <mxGeometry x="0.9551" y="6" relative="1" as="geometry">
            <mxPoint y="3" as="offset" />
          </mxGeometry>
        </mxCell>
        <mxCell id="qFzqj4WPiyivSUaZ2Au3-71" value="RecordType" style="swimlane;fontStyle=1;align=center;verticalAlign=top;childLayout=stackLayout;horizontal=1;startSize=26;horizontalStack=0;resizeParent=1;resizeParentMax=0;resizeLast=0;collapsible=1;marginBottom=0;whiteSpace=wrap;html=1;" parent="1" vertex="1">
          <mxGeometry x="-350.24" y="-196" width="120" height="86" as="geometry" />
        </mxCell>
        <mxCell id="qFzqj4WPiyivSUaZ2Au3-72" value="&lt;div&gt;&lt;br&gt;&lt;/div&gt;&lt;div&gt;&lt;br&gt;&lt;/div&gt;" style="text;strokeColor=none;fillColor=none;align=left;verticalAlign=top;spacingLeft=4;spacingRight=4;overflow=hidden;rotatable=0;points=[[0,0.5],[1,0.5]];portConstraint=eastwest;whiteSpace=wrap;html=1;" parent="qFzqj4WPiyivSUaZ2Au3-71" vertex="1">
          <mxGeometry y="26" width="120" height="26" as="geometry" />
        </mxCell>
        <mxCell id="qFzqj4WPiyivSUaZ2Au3-73" value="" style="line;strokeWidth=1;fillColor=none;align=left;verticalAlign=middle;spacingTop=-1;spacingLeft=3;spacingRight=3;rotatable=0;labelPosition=right;points=[];portConstraint=eastwest;strokeColor=inherit;" parent="qFzqj4WPiyivSUaZ2Au3-71" vertex="1">
          <mxGeometry y="52" width="120" height="8" as="geometry" />
        </mxCell>
        <mxCell id="qFzqj4WPiyivSUaZ2Au3-74" value="&lt;div&gt;&lt;br&gt;&lt;/div&gt;&lt;div&gt;&lt;br&gt;&lt;/div&gt;" style="text;strokeColor=none;fillColor=none;align=left;verticalAlign=top;spacingLeft=4;spacingRight=4;overflow=hidden;rotatable=0;points=[[0,0.5],[1,0.5]];portConstraint=eastwest;whiteSpace=wrap;html=1;" parent="qFzqj4WPiyivSUaZ2Au3-71" vertex="1">
          <mxGeometry y="60" width="120" height="26" as="geometry" />
        </mxCell>
        <mxCell id="qFzqj4WPiyivSUaZ2Au3-75" value="" style="endArrow=block;dashed=1;endFill=0;endSize=12;html=1;rounded=0;entryX=1;entryY=0.5;entryDx=0;entryDy=0;exitX=1;exitY=0.5;exitDx=0;exitDy=0;" parent="1" source="qFzqj4WPiyivSUaZ2Au3-72" target="N4AWmAxjkQPShpaZA549-1" edge="1">
          <mxGeometry width="160" relative="1" as="geometry">
            <mxPoint x="-220" y="-70" as="sourcePoint" />
            <mxPoint x="-174.76" y="145" as="targetPoint" />
            <Array as="points">
              <mxPoint x="-190" y="-157" />
              <mxPoint x="-190" y="-80" />
              <mxPoint x="-100" y="-80" />
              <mxPoint x="-100" y="196" />
            </Array>
          </mxGeometry>
        </mxCell>
        <mxCell id="cy8pAgKSC0ugOIBZVbhp-1" value="RecordField" style="swimlane;fontStyle=1;align=center;verticalAlign=top;childLayout=stackLayout;horizontal=1;startSize=26;horizontalStack=0;resizeParent=1;resizeParentMax=0;resizeLast=0;collapsible=1;marginBottom=0;whiteSpace=wrap;html=1;" parent="1" vertex="1">
          <mxGeometry x="-360" y="-60" width="140" height="100" as="geometry" />
        </mxCell>
        <mxCell id="cy8pAgKSC0ugOIBZVbhp-2" value="&lt;div&gt;+ offset : int&lt;/div&gt;" style="text;strokeColor=none;fillColor=none;align=left;verticalAlign=top;spacingLeft=4;spacingRight=4;overflow=hidden;rotatable=0;points=[[0,0.5],[1,0.5]];portConstraint=eastwest;whiteSpace=wrap;html=1;" parent="cy8pAgKSC0ugOIBZVbhp-1" vertex="1">
          <mxGeometry y="26" width="140" height="24" as="geometry" />
        </mxCell>
        <mxCell id="cy8pAgKSC0ugOIBZVbhp-3" value="" style="line;strokeWidth=1;fillColor=none;align=left;verticalAlign=middle;spacingTop=-1;spacingLeft=3;spacingRight=3;rotatable=0;labelPosition=right;points=[];portConstraint=eastwest;strokeColor=inherit;" parent="cy8pAgKSC0ugOIBZVbhp-1" vertex="1">
          <mxGeometry y="50" width="140" height="8" as="geometry" />
        </mxCell>
        <mxCell id="cy8pAgKSC0ugOIBZVbhp-4" value="&lt;div&gt;+ getOffset() : int&lt;div&gt;+ setOffset(int) : void&lt;/div&gt;&lt;/div&gt;" style="text;strokeColor=none;fillColor=none;align=left;verticalAlign=top;spacingLeft=4;spacingRight=4;overflow=hidden;rotatable=0;points=[[0,0.5],[1,0.5]];portConstraint=eastwest;whiteSpace=wrap;html=1;" parent="cy8pAgKSC0ugOIBZVbhp-1" vertex="1">
          <mxGeometry y="58" width="140" height="42" as="geometry" />
        </mxCell>
        <mxCell id="cy8pAgKSC0ugOIBZVbhp-5" value="" style="endArrow=none;html=1;endSize=12;startArrow=diamondThin;startSize=14;startFill=0;edgeStyle=orthogonalEdgeStyle;align=left;verticalAlign=bottom;rounded=0;exitX=0.497;exitY=1.003;exitDx=0;exitDy=0;exitPerimeter=0;entryX=0.496;entryY=-0.001;entryDx=0;entryDy=0;entryPerimeter=0;" parent="1" source="qFzqj4WPiyivSUaZ2Au3-74" target="cy8pAgKSC0ugOIBZVbhp-1" edge="1">
          <mxGeometry x="-1" y="3" relative="1" as="geometry">
            <mxPoint x="-175.11999999999966" y="-20.077999999999975" as="sourcePoint" />
            <mxPoint x="-290" y="-40" as="targetPoint" />
            <Array as="points">
              <mxPoint x="-290" y="-110" />
              <mxPoint x="-290" y="-60" />
            </Array>
          </mxGeometry>
        </mxCell>
        <mxCell id="cy8pAgKSC0ugOIBZVbhp-6" value="1..*" style="edgeLabel;html=1;align=center;verticalAlign=middle;resizable=0;points=[];" parent="cy8pAgKSC0ugOIBZVbhp-5" vertex="1" connectable="0">
          <mxGeometry x="0.9551" y="6" relative="1" as="geometry">
            <mxPoint x="-24" y="-11" as="offset" />
          </mxGeometry>
        </mxCell>
        <mxCell id="cy8pAgKSC0ugOIBZVbhp-7" value="" style="endArrow=block;dashed=1;endFill=0;endSize=12;html=1;rounded=0;exitX=0.75;exitY=0;exitDx=0;exitDy=0;entryX=0.5;entryY=1;entryDx=0;entryDy=0;" parent="1" source="qFzqj4WPiyivSUaZ2Au3-23" target="5em6XzOoX73Qv20cHfNX-2" edge="1">
          <mxGeometry width="160" relative="1" as="geometry">
            <mxPoint x="-815" y="800" as="sourcePoint" />
            <mxPoint x="-559.52" y="730" as="targetPoint" />
            <Array as="points">
              <mxPoint x="-907" y="800" />
              <mxPoint x="-560" y="800" />
            </Array>
          </mxGeometry>
        </mxCell>
        <mxCell id="cy8pAgKSC0ugOIBZVbhp-8" value="" style="endArrow=block;dashed=1;endFill=0;endSize=12;html=1;rounded=0;exitX=0.5;exitY=0;exitDx=0;exitDy=0;entryX=0.5;entryY=1;entryDx=0;entryDy=0;" parent="1" source="qFzqj4WPiyivSUaZ2Au3-41" target="5em6XzOoX73Qv20cHfNX-2" edge="1">
          <mxGeometry width="160" relative="1" as="geometry">
            <mxPoint x="-90" y="800" as="sourcePoint" />
            <mxPoint x="-559.52" y="730" as="targetPoint" />
            <Array as="points">
              <mxPoint x="-290" y="800" />
              <mxPoint x="-560" y="800" />
            </Array>
          </mxGeometry>
        </mxCell>
        <mxCell id="cy8pAgKSC0ugOIBZVbhp-9" value="" style="endArrow=block;dashed=1;endFill=0;endSize=12;html=1;rounded=0;exitX=0;exitY=0.5;exitDx=0;exitDy=0;entryX=0.867;entryY=-0.004;entryDx=0;entryDy=0;entryPerimeter=0;" parent="1" source="cy8pAgKSC0ugOIBZVbhp-2" target="Chyv1uTGt5TqhsLYrdFu-81" edge="1">
          <mxGeometry width="160" relative="1" as="geometry">
            <mxPoint x="-670.1199999999999" y="-180.00199999999984" as="sourcePoint" />
            <mxPoint x="-550" y="70" as="targetPoint" />
            <Array as="points">
              <mxPoint x="-540" y="-22" />
              <mxPoint x="-540" y="20" />
            </Array>
          </mxGeometry>
        </mxCell>
        <mxCell id="cy8pAgKSC0ugOIBZVbhp-11" value="FunctionType" style="swimlane;fontStyle=1;align=center;verticalAlign=top;childLayout=stackLayout;horizontal=1;startSize=26;horizontalStack=0;resizeParent=1;resizeParentMax=0;resizeLast=0;collapsible=1;marginBottom=0;whiteSpace=wrap;html=1;" parent="1" vertex="1">
          <mxGeometry x="-450" y="406" width="160" height="86" as="geometry" />
        </mxCell>
        <mxCell id="cy8pAgKSC0ugOIBZVbhp-12" value="&lt;div&gt;&lt;br&gt;&lt;/div&gt;&lt;div&gt;&lt;br&gt;&lt;/div&gt;" style="text;strokeColor=none;fillColor=none;align=left;verticalAlign=top;spacingLeft=4;spacingRight=4;overflow=hidden;rotatable=0;points=[[0,0.5],[1,0.5]];portConstraint=eastwest;whiteSpace=wrap;html=1;" parent="cy8pAgKSC0ugOIBZVbhp-11" vertex="1">
          <mxGeometry y="26" width="160" height="26" as="geometry" />
        </mxCell>
        <mxCell id="cy8pAgKSC0ugOIBZVbhp-13" value="" style="line;strokeWidth=1;fillColor=none;align=left;verticalAlign=middle;spacingTop=-1;spacingLeft=3;spacingRight=3;rotatable=0;labelPosition=right;points=[];portConstraint=eastwest;strokeColor=inherit;" parent="cy8pAgKSC0ugOIBZVbhp-11" vertex="1">
          <mxGeometry y="52" width="160" height="8" as="geometry" />
        </mxCell>
        <mxCell id="cy8pAgKSC0ugOIBZVbhp-14" value="&lt;div&gt;&lt;br&gt;&lt;/div&gt;&lt;div&gt;&lt;br&gt;&lt;/div&gt;" style="text;strokeColor=none;fillColor=none;align=left;verticalAlign=top;spacingLeft=4;spacingRight=4;overflow=hidden;rotatable=0;points=[[0,0.5],[1,0.5]];portConstraint=eastwest;whiteSpace=wrap;html=1;" parent="cy8pAgKSC0ugOIBZVbhp-11" vertex="1">
          <mxGeometry y="60" width="160" height="26" as="geometry" />
        </mxCell>
        <mxCell id="cy8pAgKSC0ugOIBZVbhp-15" value="" style="endArrow=block;dashed=1;endFill=0;endSize=12;html=1;rounded=0;exitX=0.75;exitY=0;exitDx=0;exitDy=0;entryX=0.415;entryY=1;entryDx=0;entryDy=0;entryPerimeter=0;" parent="1" source="cy8pAgKSC0ugOIBZVbhp-11" target="N4AWmAxjkQPShpaZA549-1" edge="1">
          <mxGeometry width="160" relative="1" as="geometry">
            <mxPoint x="20" y="-64" as="sourcePoint" />
            <mxPoint x="-285" y="205" as="targetPoint" />
            <Array as="points" />
          </mxGeometry>
        </mxCell>
        <mxCell id="cy8pAgKSC0ugOIBZVbhp-16" value="" style="endArrow=none;html=1;endSize=12;startArrow=diamondThin;startSize=14;startFill=0;edgeStyle=orthogonalEdgeStyle;align=left;verticalAlign=bottom;rounded=0;exitX=0.5;exitY=0;exitDx=0;exitDy=0;entryX=0.25;entryY=1;entryDx=0;entryDy=0;" parent="1" source="cy8pAgKSC0ugOIBZVbhp-11" target="N4AWmAxjkQPShpaZA549-1" edge="1">
          <mxGeometry x="-1" y="3" relative="1" as="geometry">
            <mxPoint x="-228" y="89.5" as="sourcePoint" />
            <mxPoint x="-390" y="360" as="targetPoint" />
            <Array as="points">
              <mxPoint x="-370" y="360" />
              <mxPoint x="-370" y="360" />
            </Array>
          </mxGeometry>
        </mxCell>
        <mxCell id="cy8pAgKSC0ugOIBZVbhp-17" value="1" style="edgeLabel;html=1;align=center;verticalAlign=middle;resizable=0;points=[];" parent="cy8pAgKSC0ugOIBZVbhp-16" vertex="1" connectable="0">
          <mxGeometry x="0.9551" y="6" relative="1" as="geometry">
            <mxPoint x="-9" y="6" as="offset" />
          </mxGeometry>
        </mxCell>
        <mxCell id="cy8pAgKSC0ugOIBZVbhp-18" value="VoidType" style="swimlane;fontStyle=1;align=center;verticalAlign=top;childLayout=stackLayout;horizontal=1;startSize=26;horizontalStack=0;resizeParent=1;resizeParentMax=0;resizeLast=0;collapsible=1;marginBottom=0;whiteSpace=wrap;html=1;" parent="1" vertex="1">
          <mxGeometry x="-69.99999999999999" y="300" width="120" height="86" as="geometry" />
        </mxCell>
        <mxCell id="cy8pAgKSC0ugOIBZVbhp-19" value="&lt;div&gt;&lt;br&gt;&lt;/div&gt;&lt;div&gt;&lt;br&gt;&lt;/div&gt;" style="text;strokeColor=none;fillColor=none;align=left;verticalAlign=top;spacingLeft=4;spacingRight=4;overflow=hidden;rotatable=0;points=[[0,0.5],[1,0.5]];portConstraint=eastwest;whiteSpace=wrap;html=1;" parent="cy8pAgKSC0ugOIBZVbhp-18" vertex="1">
          <mxGeometry y="26" width="120" height="26" as="geometry" />
        </mxCell>
        <mxCell id="cy8pAgKSC0ugOIBZVbhp-20" value="" style="line;strokeWidth=1;fillColor=none;align=left;verticalAlign=middle;spacingTop=-1;spacingLeft=3;spacingRight=3;rotatable=0;labelPosition=right;points=[];portConstraint=eastwest;strokeColor=inherit;" parent="cy8pAgKSC0ugOIBZVbhp-18" vertex="1">
          <mxGeometry y="52" width="120" height="8" as="geometry" />
        </mxCell>
        <mxCell id="cy8pAgKSC0ugOIBZVbhp-21" value="&lt;div&gt;&lt;br&gt;&lt;/div&gt;&lt;div&gt;&lt;br&gt;&lt;/div&gt;" style="text;strokeColor=none;fillColor=none;align=left;verticalAlign=top;spacingLeft=4;spacingRight=4;overflow=hidden;rotatable=0;points=[[0,0.5],[1,0.5]];portConstraint=eastwest;whiteSpace=wrap;html=1;" parent="cy8pAgKSC0ugOIBZVbhp-18" vertex="1">
          <mxGeometry y="60" width="120" height="26" as="geometry" />
        </mxCell>
        <mxCell id="cy8pAgKSC0ugOIBZVbhp-22" value="" style="endArrow=block;dashed=1;endFill=0;endSize=12;html=1;rounded=0;exitX=0;exitY=0.532;exitDx=0;exitDy=0;entryX=1;entryY=0.5;entryDx=0;entryDy=0;exitPerimeter=0;" parent="1" source="cy8pAgKSC0ugOIBZVbhp-19" target="N4AWmAxjkQPShpaZA549-1" edge="1">
          <mxGeometry width="160" relative="1" as="geometry">
            <mxPoint x="-24.759999999999998" y="209" as="sourcePoint" />
            <mxPoint x="-174.76" y="145" as="targetPoint" />
            <Array as="points">
              <mxPoint x="-100" y="340" />
              <mxPoint x="-100" y="196" />
            </Array>
          </mxGeometry>
        </mxCell>
        <mxCell id="cy8pAgKSC0ugOIBZVbhp-23" value="" style="endArrow=none;html=1;endSize=12;startArrow=diamondThin;startSize=14;startFill=0;edgeStyle=orthogonalEdgeStyle;align=left;verticalAlign=bottom;rounded=0;exitX=0.25;exitY=0;exitDx=0;exitDy=0;entryX=0.75;entryY=0;entryDx=0;entryDy=0;" parent="1" source="cy8pAgKSC0ugOIBZVbhp-11" target="Chyv1uTGt5TqhsLYrdFu-64" edge="1">
          <mxGeometry x="-1" y="3" relative="1" as="geometry">
            <mxPoint x="-437.02" y="-12.040000000000006" as="sourcePoint" />
            <mxPoint x="-406.02" y="239.95999999999998" as="targetPoint" />
            <Array as="points">
              <mxPoint x="-410" y="370" />
              <mxPoint x="-450" y="370" />
              <mxPoint x="-450" y="270" />
              <mxPoint x="-749" y="270" />
            </Array>
          </mxGeometry>
        </mxCell>
        <mxCell id="cy8pAgKSC0ugOIBZVbhp-24" value="*" style="edgeLabel;html=1;align=center;verticalAlign=middle;resizable=0;points=[];" parent="cy8pAgKSC0ugOIBZVbhp-23" vertex="1" connectable="0">
          <mxGeometry x="0.9551" y="6" relative="1" as="geometry">
            <mxPoint x="-16" y="-2" as="offset" />
          </mxGeometry>
        </mxCell>
        <mxCell id="cy8pAgKSC0ugOIBZVbhp-27" value="&lt;div&gt;&lt;br&gt;&lt;/div&gt;&lt;div&gt;&lt;br&gt;&lt;/div&gt;" style="endArrow=block;endSize=16;endFill=0;html=1;rounded=0;exitX=0.554;exitY=0.001;exitDx=0;exitDy=0;exitPerimeter=0;" parent="1" edge="1">
          <mxGeometry x="-0.1304" y="-1" width="160" relative="1" as="geometry">
            <mxPoint x="-546.2900000000002" y="630.0100899999998" as="sourcePoint" />
            <mxPoint x="-790" y="126" as="targetPoint" />
            <mxPoint as="offset" />
            <Array as="points">
              <mxPoint x="-546" y="520" />
              <mxPoint x="-546" y="420" />
              <mxPoint x="-510" y="420" />
              <mxPoint x="-510" y="250" />
              <mxPoint x="-730" y="250" />
              <mxPoint x="-730" y="170" />
              <mxPoint x="-790" y="170" />
            </Array>
          </mxGeometry>
        </mxCell>
        <mxCell id="cy8pAgKSC0ugOIBZVbhp-28" value="&lt;div&gt;&lt;br&gt;&lt;/div&gt;&lt;div&gt;&lt;br&gt;&lt;/div&gt;" style="endArrow=block;endSize=16;endFill=0;html=1;rounded=0;entryX=0.516;entryY=0.998;entryDx=0;entryDy=0;entryPerimeter=0;" parent="1" target="Chyv1uTGt5TqhsLYrdFu-73" edge="1">
          <mxGeometry x="-0.8901" y="-5" width="160" relative="1" as="geometry">
            <mxPoint x="-670" y="170" as="sourcePoint" />
            <mxPoint x="-790" y="130" as="targetPoint" />
            <mxPoint as="offset" />
            <Array as="points">
              <mxPoint x="-790" y="170" />
            </Array>
          </mxGeometry>
        </mxCell>
        <mxCell id="cy8pAgKSC0ugOIBZVbhp-30" value="&lt;div&gt;&lt;br&gt;&lt;/div&gt;&lt;div&gt;&lt;br&gt;&lt;/div&gt;" style="endArrow=block;endSize=16;endFill=0;html=1;rounded=0;exitX=0;exitY=0.25;exitDx=0;exitDy=0;entryX=1.001;entryY=0.284;entryDx=0;entryDy=0;entryPerimeter=0;" parent="1" source="N4AWmAxjkQPShpaZA549-1" target="5em6XzOoX73Qv20cHfNX-5" edge="1">
          <mxGeometry x="-0.1411" y="-10" width="160" relative="1" as="geometry">
            <mxPoint x="-442.5" y="140" as="sourcePoint" />
            <mxPoint x="-700" y="-80" as="targetPoint" />
            <mxPoint as="offset" />
            <Array as="points">
              <mxPoint x="-450" y="125" />
              <mxPoint x="-450" y="-160" />
            </Array>
          </mxGeometry>
        </mxCell>
        <mxCell id="cy8pAgKSC0ugOIBZVbhp-31" value="CharLiteral" style="swimlane;fontStyle=1;align=center;verticalAlign=top;childLayout=stackLayout;horizontal=1;startSize=26;horizontalStack=0;resizeParent=1;resizeParentMax=0;resizeLast=0;collapsible=1;marginBottom=0;whiteSpace=wrap;html=1;" parent="1" vertex="1">
          <mxGeometry x="-352.74" y="664.9499999999999" width="120" height="60" as="geometry" />
        </mxCell>
        <mxCell id="cy8pAgKSC0ugOIBZVbhp-32" value="&lt;div&gt;&lt;br&gt;&lt;/div&gt;" style="text;strokeColor=none;fillColor=none;align=left;verticalAlign=top;spacingLeft=4;spacingRight=4;overflow=hidden;rotatable=0;points=[[0,0.5],[1,0.5]];portConstraint=eastwest;whiteSpace=wrap;html=1;" parent="cy8pAgKSC0ugOIBZVbhp-31" vertex="1">
          <mxGeometry y="26" width="120" height="14" as="geometry" />
        </mxCell>
        <mxCell id="cy8pAgKSC0ugOIBZVbhp-33" value="" style="line;strokeWidth=1;fillColor=none;align=left;verticalAlign=middle;spacingTop=-1;spacingLeft=3;spacingRight=3;rotatable=0;labelPosition=right;points=[];portConstraint=eastwest;strokeColor=inherit;" parent="cy8pAgKSC0ugOIBZVbhp-31" vertex="1">
          <mxGeometry y="40" width="120" height="8" as="geometry" />
        </mxCell>
        <mxCell id="cy8pAgKSC0ugOIBZVbhp-34" value="&lt;div&gt;&lt;br&gt;&lt;/div&gt;&lt;div&gt;&lt;br&gt;&lt;/div&gt;" style="text;strokeColor=none;fillColor=none;align=left;verticalAlign=top;spacingLeft=4;spacingRight=4;overflow=hidden;rotatable=0;points=[[0,0.5],[1,0.5]];portConstraint=eastwest;whiteSpace=wrap;html=1;" parent="cy8pAgKSC0ugOIBZVbhp-31" vertex="1">
          <mxGeometry y="48" width="120" height="12" as="geometry" />
        </mxCell>
        <mxCell id="cy8pAgKSC0ugOIBZVbhp-35" value="" style="endArrow=block;dashed=1;endFill=0;endSize=12;html=1;rounded=0;entryX=1;entryY=0.5;entryDx=0;entryDy=0;exitX=0.001;exitY=0.294;exitDx=0;exitDy=0;exitPerimeter=0;" parent="1" source="cy8pAgKSC0ugOIBZVbhp-32" target="5em6XzOoX73Qv20cHfNX-2" edge="1">
          <mxGeometry width="160" relative="1" as="geometry">
            <mxPoint x="-380" y="670" as="sourcePoint" />
            <mxPoint x="-438.7350000000001" y="675.9513999999999" as="targetPoint" />
            <Array as="points" />
          </mxGeometry>
        </mxCell>
        <mxCell id="1-SI36wJG96T30TcwkW8-6" value="Read" style="swimlane;fontStyle=1;align=center;verticalAlign=top;childLayout=stackLayout;horizontal=1;startSize=26;horizontalStack=0;resizeParent=1;resizeParentMax=0;resizeLast=0;collapsible=1;marginBottom=0;whiteSpace=wrap;html=1;" parent="1" vertex="1">
          <mxGeometry x="-920" y="513" width="110" height="84" as="geometry" />
        </mxCell>
        <mxCell id="1-SI36wJG96T30TcwkW8-7" value="&lt;div&gt;&lt;br&gt;&lt;/div&gt;" style="text;strokeColor=none;fillColor=none;align=left;verticalAlign=top;spacingLeft=4;spacingRight=4;overflow=hidden;rotatable=0;points=[[0,0.5],[1,0.5]];portConstraint=eastwest;whiteSpace=wrap;html=1;" parent="1-SI36wJG96T30TcwkW8-6" vertex="1">
          <mxGeometry y="26" width="110" height="24" as="geometry" />
        </mxCell>
        <mxCell id="1-SI36wJG96T30TcwkW8-8" value="" style="line;strokeWidth=1;fillColor=none;align=left;verticalAlign=middle;spacingTop=-1;spacingLeft=3;spacingRight=3;rotatable=0;labelPosition=right;points=[];portConstraint=eastwest;strokeColor=inherit;" parent="1-SI36wJG96T30TcwkW8-6" vertex="1">
          <mxGeometry y="50" width="110" height="8" as="geometry" />
        </mxCell>
        <mxCell id="1-SI36wJG96T30TcwkW8-9" value="&lt;div&gt;&lt;br&gt;&lt;/div&gt;&lt;div&gt;&lt;br&gt;&lt;/div&gt;" style="text;strokeColor=none;fillColor=none;align=left;verticalAlign=top;spacingLeft=4;spacingRight=4;overflow=hidden;rotatable=0;points=[[0,0.5],[1,0.5]];portConstraint=eastwest;whiteSpace=wrap;html=1;" parent="1-SI36wJG96T30TcwkW8-6" vertex="1">
          <mxGeometry y="58" width="110" height="26" as="geometry" />
        </mxCell>
        <mxCell id="1-SI36wJG96T30TcwkW8-10" value="" style="endArrow=block;dashed=1;endFill=0;endSize=12;html=1;rounded=0;exitX=0.5;exitY=0;exitDx=0;exitDy=0;entryX=0.25;entryY=1;entryDx=0;entryDy=0;" parent="1" source="qFzqj4WPiyivSUaZ2Au3-55" target="Chyv1uTGt5TqhsLYrdFu-52" edge="1">
          <mxGeometry width="160" relative="1" as="geometry">
            <mxPoint x="-980" y="511" as="sourcePoint" />
            <mxPoint x="-1020" y="290" as="targetPoint" />
            <Array as="points">
              <mxPoint x="-1035" y="490" />
              <mxPoint x="-985" y="490" />
            </Array>
          </mxGeometry>
        </mxCell>
        <mxCell id="1-SI36wJG96T30TcwkW8-11" value="" style="endArrow=none;html=1;endSize=12;startArrow=diamondThin;startSize=14;startFill=0;edgeStyle=orthogonalEdgeStyle;align=left;verticalAlign=bottom;rounded=0;exitX=0.502;exitY=0.995;exitDx=0;exitDy=0;exitPerimeter=0;entryX=-0.001;entryY=0.078;entryDx=0;entryDy=0;entryPerimeter=0;" parent="1" source="qFzqj4WPiyivSUaZ2Au3-58" target="5em6XzOoX73Qv20cHfNX-2" edge="1">
          <mxGeometry x="-1" y="3" relative="1" as="geometry">
            <mxPoint x="-1070" y="662" as="sourcePoint" />
            <mxPoint x="-670.0150000000001" y="629.9099999999999" as="targetPoint" />
            <Array as="points">
              <mxPoint x="-1034" y="640" />
            </Array>
          </mxGeometry>
        </mxCell>
        <mxCell id="1-SI36wJG96T30TcwkW8-12" value="*" style="edgeLabel;html=1;align=center;verticalAlign=middle;resizable=0;points=[];" parent="1-SI36wJG96T30TcwkW8-11" vertex="1" connectable="0">
          <mxGeometry x="0.9551" y="6" relative="1" as="geometry">
            <mxPoint y="-1" as="offset" />
          </mxGeometry>
        </mxCell>
        <mxCell id="1-SI36wJG96T30TcwkW8-13" value="" style="endArrow=none;html=1;endSize=12;startArrow=diamondThin;startSize=14;startFill=0;edgeStyle=orthogonalEdgeStyle;align=left;verticalAlign=bottom;rounded=0;exitX=0.504;exitY=0.995;exitDx=0;exitDy=0;exitPerimeter=0;" parent="1" source="1-SI36wJG96T30TcwkW8-9" edge="1">
          <mxGeometry x="-1" y="3" relative="1" as="geometry">
            <mxPoint x="-1120" y="594" as="sourcePoint" />
            <mxPoint x="-680" y="640" as="targetPoint" />
            <Array as="points">
              <mxPoint x="-865" y="640" />
            </Array>
          </mxGeometry>
        </mxCell>
        <mxCell id="1-SI36wJG96T30TcwkW8-15" value="" style="endArrow=none;html=1;endSize=12;startArrow=diamondThin;startSize=14;startFill=0;edgeStyle=orthogonalEdgeStyle;align=left;verticalAlign=bottom;rounded=0;exitX=0.504;exitY=0.996;exitDx=0;exitDy=0;exitPerimeter=0;entryX=0.124;entryY=-0.001;entryDx=0;entryDy=0;entryPerimeter=0;" parent="1" source="qFzqj4WPiyivSUaZ2Au3-62" target="5em6XzOoX73Qv20cHfNX-2" edge="1">
          <mxGeometry x="-1" y="3" relative="1" as="geometry">
            <mxPoint x="-980" y="595" as="sourcePoint" />
            <mxPoint x="-649.925" y="629.9099999999999" as="targetPoint" />
            <Array as="points">
              <mxPoint x="-715" y="620" />
              <mxPoint x="-650" y="620" />
            </Array>
          </mxGeometry>
        </mxCell>
        <mxCell id="1-SI36wJG96T30TcwkW8-16" value="2" style="edgeLabel;html=1;align=center;verticalAlign=middle;resizable=0;points=[];" parent="1-SI36wJG96T30TcwkW8-15" vertex="1" connectable="0">
          <mxGeometry x="0.9302" y="-1" relative="1" as="geometry">
            <mxPoint x="11" y="-7" as="offset" />
          </mxGeometry>
        </mxCell>
        <mxCell id="1-SI36wJG96T30TcwkW8-17" value="" style="endArrow=none;html=1;endSize=12;startArrow=diamondThin;startSize=14;startFill=0;edgeStyle=orthogonalEdgeStyle;align=left;verticalAlign=bottom;rounded=0;exitX=0.747;exitY=1.002;exitDx=0;exitDy=0;exitPerimeter=0;" parent="1" source="Chyv1uTGt5TqhsLYrdFu-51" edge="1">
          <mxGeometry x="-1" y="3" relative="1" as="geometry">
            <mxPoint x="-827" y="488" as="sourcePoint" />
            <mxPoint x="-620" y="630" as="targetPoint" />
            <Array as="points">
              <mxPoint x="-1033" y="470" />
              <mxPoint x="-620" y="470" />
              <mxPoint x="-620" y="630" />
            </Array>
          </mxGeometry>
        </mxCell>
        <mxCell id="1-SI36wJG96T30TcwkW8-18" value="1" style="edgeLabel;html=1;align=center;verticalAlign=middle;resizable=0;points=[];" parent="1-SI36wJG96T30TcwkW8-17" vertex="1" connectable="0">
          <mxGeometry x="0.9302" y="-1" relative="1" as="geometry">
            <mxPoint x="11" y="13" as="offset" />
          </mxGeometry>
        </mxCell>
        <mxCell id="ObivhLdRkOrZMCO8oqJg-4" value="if-cond" style="edgeLabel;html=1;align=center;verticalAlign=middle;resizable=0;points=[];" parent="1-SI36wJG96T30TcwkW8-17" vertex="1" connectable="0">
          <mxGeometry x="-0.9017" relative="1" as="geometry">
            <mxPoint x="20" y="-10" as="offset" />
          </mxGeometry>
        </mxCell>
        <mxCell id="1-SI36wJG96T30TcwkW8-19" value="" style="endArrow=none;html=1;endSize=12;startArrow=diamondThin;startSize=14;startFill=0;edgeStyle=orthogonalEdgeStyle;align=left;verticalAlign=bottom;rounded=0;exitX=0.747;exitY=1.058;exitDx=0;exitDy=0;exitPerimeter=0;entryX=0.25;entryY=0;entryDx=0;entryDy=0;" parent="1" source="OmQNnyCMkDBNFYBYzlFr-27" target="5em6XzOoX73Qv20cHfNX-2" edge="1">
          <mxGeometry x="-1" y="3" relative="1" as="geometry">
            <mxPoint x="-1081" y="418" as="sourcePoint" />
            <mxPoint x="-610" y="600" as="targetPoint" />
            <Array as="points">
              <mxPoint x="-1145" y="470" />
              <mxPoint x="-620" y="470" />
              <mxPoint x="-620" y="630" />
            </Array>
          </mxGeometry>
        </mxCell>
        <mxCell id="ObivhLdRkOrZMCO8oqJg-5" value="condition" style="edgeLabel;html=1;align=center;verticalAlign=middle;resizable=0;points=[];" parent="1-SI36wJG96T30TcwkW8-19" vertex="1" connectable="0">
          <mxGeometry x="-0.9231" y="1" relative="1" as="geometry">
            <mxPoint x="27" y="-13" as="offset" />
          </mxGeometry>
        </mxCell>
        <mxCell id="ObivhLdRkOrZMCO8oqJg-1" value="&lt;div&gt;&lt;br&gt;&lt;/div&gt;&lt;div&gt;&lt;br&gt;&lt;/div&gt;" style="endArrow=block;endSize=16;endFill=0;html=1;rounded=0;entryX=0.515;entryY=0.997;entryDx=0;entryDy=0;exitX=0.5;exitY=0;exitDx=0;exitDy=0;entryPerimeter=0;" parent="1" source="Chyv1uTGt5TqhsLYrdFu-52" target="Chyv1uTGt5TqhsLYrdFu-73" edge="1">
          <mxGeometry x="-0.8901" y="-5" width="160" relative="1" as="geometry">
            <mxPoint x="-663" y="175.5" as="sourcePoint" />
            <mxPoint x="-790" y="120.5" as="targetPoint" />
            <mxPoint as="offset" />
            <Array as="points">
              <mxPoint x="-950" y="170" />
              <mxPoint x="-790" y="170" />
            </Array>
          </mxGeometry>
        </mxCell>
        <mxCell id="IQf_JjBxd5C6d_c1NJsK-1" value="" style="endArrow=none;html=1;endSize=12;startArrow=diamondThin;startSize=14;startFill=0;edgeStyle=orthogonalEdgeStyle;align=left;verticalAlign=bottom;rounded=0;exitX=0.5;exitY=0;exitDx=0;exitDy=0;entryX=0.102;entryY=0.997;entryDx=0;entryDy=0;entryPerimeter=0;" parent="1" source="qFzqj4WPiyivSUaZ2Au3-13" target="5em6XzOoX73Qv20cHfNX-2" edge="1">
          <mxGeometry x="-1" y="3" relative="1" as="geometry">
            <mxPoint x="-853" y="790" as="sourcePoint" />
            <mxPoint x="-620.77" y="730" as="targetPoint" />
            <Array as="points">
              <mxPoint x="-747" y="780" />
              <mxPoint x="-655" y="780" />
            </Array>
          </mxGeometry>
        </mxCell>
        <mxCell id="IQf_JjBxd5C6d_c1NJsK-2" value="2" style="edgeLabel;html=1;align=center;verticalAlign=middle;resizable=0;points=[];" parent="IQf_JjBxd5C6d_c1NJsK-1" vertex="1" connectable="0">
          <mxGeometry x="0.9551" y="6" relative="1" as="geometry">
            <mxPoint x="17" y="4" as="offset" />
          </mxGeometry>
        </mxCell>
        <mxCell id="IQf_JjBxd5C6d_c1NJsK-4" value="" style="endArrow=none;html=1;endSize=12;startArrow=diamondThin;startSize=14;startFill=0;edgeStyle=orthogonalEdgeStyle;align=left;verticalAlign=bottom;rounded=0;exitX=0.5;exitY=0;exitDx=0;exitDy=0;" parent="1" source="qFzqj4WPiyivSUaZ2Au3-17" edge="1">
          <mxGeometry x="-1" y="3" relative="1" as="geometry">
            <mxPoint x="-590" y="937" as="sourcePoint" />
            <mxPoint x="-580" y="760" as="targetPoint" />
            <Array as="points">
              <mxPoint x="-580" y="780" />
              <mxPoint x="-580" y="780" />
            </Array>
          </mxGeometry>
        </mxCell>
        <mxCell id="IQf_JjBxd5C6d_c1NJsK-5" value="2" style="edgeLabel;html=1;align=center;verticalAlign=middle;resizable=0;points=[];" parent="IQf_JjBxd5C6d_c1NJsK-4" vertex="1" connectable="0">
          <mxGeometry x="0.9551" y="6" relative="1" as="geometry">
            <mxPoint x="-3" y="6" as="offset" />
          </mxGeometry>
        </mxCell>
        <mxCell id="5CfrE2hqbLgz-vAYuVyf-1" value="" style="endArrow=block;dashed=1;endFill=0;endSize=12;html=1;rounded=0;exitX=0.266;exitY=-0.001;exitDx=0;exitDy=0;entryX=1;entryY=0.5;entryDx=0;entryDy=0;exitPerimeter=0;" parent="1" source="Chyv1uTGt5TqhsLYrdFu-64" target="Chyv1uTGt5TqhsLYrdFu-52" edge="1">
          <mxGeometry width="160" relative="1" as="geometry">
            <mxPoint x="-805" y="314" as="sourcePoint" />
            <mxPoint x="-600" y="216" as="targetPoint" />
            <Array as="points">
              <mxPoint x="-827" y="255" />
            </Array>
          </mxGeometry>
        </mxCell>
        <mxCell id="ZSRF1pYo0nzElMqLl7vn-1" value="" style="endArrow=block;dashed=1;endFill=0;endSize=12;html=1;rounded=0;exitX=0.25;exitY=0;exitDx=0;exitDy=0;entryX=0.25;entryY=1;entryDx=0;entryDy=0;" parent="1" source="qFzqj4WPiyivSUaZ2Au3-23" target="Chyv1uTGt5TqhsLYrdFu-52" edge="1">
          <mxGeometry width="160" relative="1" as="geometry">
            <mxPoint x="-1000" y="654" as="sourcePoint" />
            <mxPoint x="-1030" y="444" as="targetPoint" />
            <Array as="points">
              <mxPoint x="-962" y="490" />
              <mxPoint x="-985" y="490" />
            </Array>
          </mxGeometry>
        </mxCell>
        <mxCell id="aIuGycjz0XCLrKVgRhZO-1" value="ErrorType" style="swimlane;fontStyle=1;align=center;verticalAlign=top;childLayout=stackLayout;horizontal=1;startSize=26;horizontalStack=0;resizeParent=1;resizeParentMax=0;resizeLast=0;collapsible=1;marginBottom=0;whiteSpace=wrap;html=1;" parent="1" vertex="1">
          <mxGeometry x="-69.99999999999999" width="180" height="86" as="geometry" />
        </mxCell>
        <mxCell id="aIuGycjz0XCLrKVgRhZO-2" value="+ message : String" style="text;strokeColor=none;fillColor=none;align=left;verticalAlign=top;spacingLeft=4;spacingRight=4;overflow=hidden;rotatable=0;points=[[0,0.5],[1,0.5]];portConstraint=eastwest;whiteSpace=wrap;html=1;" parent="aIuGycjz0XCLrKVgRhZO-1" vertex="1">
          <mxGeometry y="26" width="180" height="26" as="geometry" />
        </mxCell>
        <mxCell id="aIuGycjz0XCLrKVgRhZO-3" value="" style="line;strokeWidth=1;fillColor=none;align=left;verticalAlign=middle;spacingTop=-1;spacingLeft=3;spacingRight=3;rotatable=0;labelPosition=right;points=[];portConstraint=eastwest;strokeColor=inherit;" parent="aIuGycjz0XCLrKVgRhZO-1" vertex="1">
          <mxGeometry y="52" width="180" height="8" as="geometry" />
        </mxCell>
        <mxCell id="aIuGycjz0XCLrKVgRhZO-4" value="+ ErrorType(String, Locatable)" style="text;strokeColor=none;fillColor=none;align=left;verticalAlign=top;spacingLeft=4;spacingRight=4;overflow=hidden;rotatable=0;points=[[0,0.5],[1,0.5]];portConstraint=eastwest;whiteSpace=wrap;html=1;" parent="aIuGycjz0XCLrKVgRhZO-1" vertex="1">
          <mxGeometry y="60" width="180" height="26" as="geometry" />
        </mxCell>
        <mxCell id="aIuGycjz0XCLrKVgRhZO-5" value="" style="endArrow=block;dashed=1;endFill=0;endSize=12;html=1;rounded=0;exitX=0;exitY=0.5;exitDx=0;exitDy=0;entryX=1;entryY=0.5;entryDx=0;entryDy=0;" parent="1" source="aIuGycjz0XCLrKVgRhZO-2" target="N4AWmAxjkQPShpaZA549-1" edge="1">
          <mxGeometry width="160" relative="1" as="geometry">
            <mxPoint x="-104.75999999999999" y="-57" as="sourcePoint" />
            <mxPoint x="-174.76" y="145" as="targetPoint" />
            <Array as="points">
              <mxPoint x="-100" y="39" />
              <mxPoint x="-100" y="196" />
            </Array>
          </mxGeometry>
        </mxCell>
        <mxCell id="aIuGycjz0XCLrKVgRhZO-6" value="&lt;div&gt;&amp;lt;&amp;lt;singleton&amp;gt;&amp;gt;&lt;/div&gt;ErrorHandler" style="swimlane;fontStyle=1;align=center;verticalAlign=top;childLayout=stackLayout;horizontal=1;startSize=40;horizontalStack=0;resizeParent=1;resizeParentMax=0;resizeLast=0;collapsible=1;marginBottom=0;whiteSpace=wrap;html=1;" parent="1" vertex="1">
          <mxGeometry x="-69.99999999999999" y="-281" width="180" height="152" as="geometry" />
        </mxCell>
        <mxCell id="aIuGycjz0XCLrKVgRhZO-7" value="&amp;nbsp;" style="text;strokeColor=none;fillColor=none;align=left;verticalAlign=top;spacingLeft=4;spacingRight=4;overflow=hidden;rotatable=0;points=[[0,0.5],[1,0.5]];portConstraint=eastwest;whiteSpace=wrap;html=1;" parent="aIuGycjz0XCLrKVgRhZO-6" vertex="1">
          <mxGeometry y="40" width="180" height="26" as="geometry" />
        </mxCell>
        <mxCell id="aIuGycjz0XCLrKVgRhZO-8" value="" style="line;strokeWidth=1;fillColor=none;align=left;verticalAlign=middle;spacingTop=-1;spacingLeft=3;spacingRight=3;rotatable=0;labelPosition=right;points=[];portConstraint=eastwest;strokeColor=inherit;" parent="aIuGycjz0XCLrKVgRhZO-6" vertex="1">
          <mxGeometry y="66" width="180" height="8" as="geometry" />
        </mxCell>
        <mxCell id="aIuGycjz0XCLrKVgRhZO-9" value="+ addError(ErrorType)&lt;div&gt;&lt;br&gt;&lt;/div&gt;" style="text;strokeColor=none;fillColor=none;align=left;verticalAlign=top;spacingLeft=4;spacingRight=4;overflow=hidden;rotatable=0;points=[[0,0.5],[1,0.5]];portConstraint=eastwest;whiteSpace=wrap;html=1;" parent="aIuGycjz0XCLrKVgRhZO-6" vertex="1">
          <mxGeometry y="74" width="180" height="26" as="geometry" />
        </mxCell>
        <mxCell id="aIuGycjz0XCLrKVgRhZO-12" value="+ showError(PrintStream)&lt;div&gt;&lt;br&gt;&lt;/div&gt;" style="text;strokeColor=none;fillColor=none;align=left;verticalAlign=top;spacingLeft=4;spacingRight=4;overflow=hidden;rotatable=0;points=[[0,0.5],[1,0.5]];portConstraint=eastwest;whiteSpace=wrap;html=1;" parent="aIuGycjz0XCLrKVgRhZO-6" vertex="1">
          <mxGeometry y="100" width="180" height="26" as="geometry" />
        </mxCell>
        <mxCell id="aIuGycjz0XCLrKVgRhZO-13" value="+ anyError() : boolean" style="text;strokeColor=none;fillColor=none;align=left;verticalAlign=top;spacingLeft=4;spacingRight=4;overflow=hidden;rotatable=0;points=[[0,0.5],[1,0.5]];portConstraint=eastwest;whiteSpace=wrap;html=1;" parent="aIuGycjz0XCLrKVgRhZO-6" vertex="1">
          <mxGeometry y="126" width="180" height="26" as="geometry" />
        </mxCell>
        <mxCell id="aIuGycjz0XCLrKVgRhZO-15" value="" style="endArrow=none;html=1;endSize=12;startArrow=diamondThin;startSize=14;startFill=0;edgeStyle=orthogonalEdgeStyle;align=left;verticalAlign=bottom;rounded=0;exitX=0.25;exitY=0;exitDx=0;exitDy=0;entryX=0;entryY=0.5;entryDx=0;entryDy=0;" parent="1" source="aIuGycjz0XCLrKVgRhZO-1" target="Chyv1uTGt5TqhsLYrdFu-73" edge="1">
          <mxGeometry x="-1" y="3" relative="1" as="geometry">
            <mxPoint x="-220" y="-140" as="sourcePoint" />
            <mxPoint x="-1000" y="-110" as="targetPoint" />
            <Array as="points">
              <mxPoint x="-25" y="-100" />
              <mxPoint x="-140" y="-100" />
              <mxPoint x="-140" y="-250" />
              <mxPoint x="-1630" y="-250" />
              <mxPoint x="-1630" y="71" />
            </Array>
          </mxGeometry>
        </mxCell>
        <mxCell id="aIuGycjz0XCLrKVgRhZO-16" value="1" style="edgeLabel;html=1;align=center;verticalAlign=middle;resizable=0;points=[];" parent="aIuGycjz0XCLrKVgRhZO-15" vertex="1" connectable="0">
          <mxGeometry x="0.9551" y="6" relative="1" as="geometry">
            <mxPoint x="43" y="21" as="offset" />
          </mxGeometry>
        </mxCell>
        <mxCell id="aIuGycjz0XCLrKVgRhZO-26" value="" style="endArrow=none;html=1;endSize=12;startArrow=diamondThin;startSize=14;startFill=0;edgeStyle=orthogonalEdgeStyle;align=left;verticalAlign=bottom;rounded=0;entryX=0.5;entryY=0;entryDx=0;entryDy=0;exitX=0.498;exitY=1;exitDx=0;exitDy=0;exitPerimeter=0;" parent="1" source="aIuGycjz0XCLrKVgRhZO-13" target="aIuGycjz0XCLrKVgRhZO-1" edge="1">
          <mxGeometry x="-1" y="3" relative="1" as="geometry">
            <mxPoint x="60.00000000000001" y="-130" as="sourcePoint" />
            <mxPoint x="-705" y="155" as="targetPoint" />
            <Array as="points">
              <mxPoint x="20" y="-100" />
              <mxPoint x="20" y="-100" />
            </Array>
          </mxGeometry>
        </mxCell>
        <mxCell id="aIuGycjz0XCLrKVgRhZO-27" value="*" style="edgeLabel;html=1;align=center;verticalAlign=middle;resizable=0;points=[];" parent="aIuGycjz0XCLrKVgRhZO-26" vertex="1" connectable="0">
          <mxGeometry x="0.9551" y="6" relative="1" as="geometry">
            <mxPoint x="1" y="-6" as="offset" />
          </mxGeometry>
        </mxCell>
        <mxCell id="5em6XzOoX73Qv20cHfNX-2" value="&lt;p style=&quot;margin:0px;margin-top:4px;text-align:center;&quot;&gt;&lt;i&gt;&amp;lt;&amp;lt;Interface&amp;gt;&amp;gt;&lt;/i&gt;&lt;br&gt;&lt;b&gt;Expression&lt;/b&gt;&lt;/p&gt;&lt;hr size=&quot;1&quot; style=&quot;border-style:solid;&quot;&gt;&lt;p style=&quot;margin:0px;margin-left:4px;&quot;&gt;&lt;span style=&quot;background-color: transparent; color: light-dark(rgb(0, 0, 0), rgb(255, 255, 255));&quot;&gt;+ boolean : getLValue()&lt;/span&gt;&lt;/p&gt;&lt;p style=&quot;margin:0px;margin-left:4px;&quot;&gt;+ void : setLValue(boolean value)&lt;/p&gt;&lt;p style=&quot;margin:0px;margin-left:4px;&quot;&gt;+ Type : getType()&lt;/p&gt;&lt;p style=&quot;margin:0px;margin-left:4px;&quot;&gt;+ void : setType(Type type)&lt;/p&gt;" style="verticalAlign=top;align=left;overflow=fill;html=1;whiteSpace=wrap;" parent="1" vertex="1">
          <mxGeometry x="-679.76" y="629.91" width="239.76" height="130.09" as="geometry" />
        </mxCell>
        <mxCell id="5em6XzOoX73Qv20cHfNX-4" value="&lt;p style=&quot;margin:0px;margin-top:4px;text-align:center;&quot;&gt;&lt;i&gt;&amp;lt;&amp;lt;Interface&amp;gt;&amp;gt;&lt;/i&gt;&lt;br&gt;&lt;b&gt;Visitor&lt;/b&gt;&lt;/p&gt;&lt;hr size=&quot;1&quot; style=&quot;border-style:solid;&quot;&gt;&lt;p style=&quot;margin:0px;margin-left:4px;&quot;&gt;&lt;/p&gt;&lt;p style=&quot;margin:0px;margin-left:4px;&quot;&gt;+ visit(e : Arithmetic, p : TP) : TR&lt;br&gt;+ visit(e : Variable, p : TP) : TR&lt;/p&gt;&lt;p style=&quot;margin:0px;margin-left:4px;&quot;&gt;&lt;span style=&quot;white-space: pre;&quot;&gt;&#x9;&lt;/span&gt;&lt;span style=&quot;white-space: pre;&quot;&gt;&#x9;&lt;/span&gt;&lt;span style=&quot;white-space: pre;&quot;&gt;&#x9;&lt;/span&gt;&amp;nbsp;&lt;font style=&quot;font-size: 16px;&quot;&gt;...&lt;/font&gt;&lt;br&gt;&lt;/p&gt;" style="verticalAlign=top;align=left;overflow=fill;html=1;whiteSpace=wrap;" parent="1" vertex="1">
          <mxGeometry x="-1250" y="-210" width="200.5" height="100" as="geometry" />
        </mxCell>
        <mxCell id="5em6XzOoX73Qv20cHfNX-5" value="&lt;p style=&quot;margin:0px;margin-top:4px;text-align:center;&quot;&gt;&lt;i&gt;&amp;lt;&amp;lt;Interface&amp;gt;&amp;gt;&lt;/i&gt;&lt;br&gt;&lt;b&gt;ASTNode&lt;/b&gt;&lt;/p&gt;&lt;hr size=&quot;1&quot; style=&quot;border-style:solid;&quot;&gt;&lt;p style=&quot;margin:0px;margin-left:4px;&quot;&gt;&lt;/p&gt;&lt;p style=&quot;margin:0px;margin-left:4px;&quot;&gt;+ accept&amp;lt;TP, TR&amp;gt;(v : Visitor&amp;lt;TP, TR&amp;gt;, p : TP) : TR&lt;/p&gt;" style="verticalAlign=top;align=left;overflow=fill;html=1;whiteSpace=wrap;" parent="1" vertex="1">
          <mxGeometry x="-987.5" y="-180" width="285" height="70" as="geometry" />
        </mxCell>
        <mxCell id="5em6XzOoX73Qv20cHfNX-8" value="&lt;font&gt;TP, TR&lt;/font&gt;" style="rounded=0;whiteSpace=wrap;html=1;dashed=1;" parent="1" vertex="1">
          <mxGeometry x="-1079.5" y="-220" width="70" height="30" as="geometry" />
        </mxCell>
        <mxCell id="5em6XzOoX73Qv20cHfNX-9" value="&lt;p style=&quot;margin:0px;margin-top:4px;text-align:center;&quot;&gt;&lt;b&gt;TypeCheckingVisitor&lt;/b&gt;&lt;/p&gt;&lt;hr size=&quot;1&quot; style=&quot;border-style:solid;&quot;&gt;&lt;p style=&quot;margin:0px;margin-left:4px;&quot;&gt;&lt;/p&gt;&lt;p style=&quot;margin:0px;margin-left:4px;&quot;&gt;+ visit(e : Arithmetic, p : Type) : Void&lt;br&gt;+ visit(e : Variable, p : Type) :&amp;nbsp;&lt;span style=&quot;background-color: transparent; color: light-dark(rgb(0, 0, 0), rgb(255, 255, 255));&quot;&gt;Void&lt;/span&gt;&lt;/p&gt;&lt;p style=&quot;margin:0px;margin-left:4px;&quot;&gt;...&lt;/p&gt;" style="verticalAlign=top;align=left;overflow=fill;html=1;whiteSpace=wrap;" parent="1" vertex="1">
          <mxGeometry x="-1079.5" y="-46" width="200" height="86" as="geometry" />
        </mxCell>
        <mxCell id="5em6XzOoX73Qv20cHfNX-10" value="&lt;p style=&quot;margin:0px;margin-top:4px;text-align:center;&quot;&gt;&lt;b&gt;LValueVisitor&lt;/b&gt;&lt;/p&gt;&lt;hr size=&quot;1&quot; style=&quot;border-style:solid;&quot;&gt;&lt;p style=&quot;margin:0px;margin-left:4px;&quot;&gt;&lt;/p&gt;&lt;p style=&quot;margin:0px;margin-left:4px;&quot;&gt;+ visit(e : Arithmetic, p : Void) : Void&lt;br&gt;+ visit(e : Variable, p : Void) :&amp;nbsp;&lt;span style=&quot;background-color: transparent; color: light-dark(rgb(0, 0, 0), rgb(255, 255, 255));&quot;&gt;Void&lt;/span&gt;&lt;/p&gt;&lt;p style=&quot;margin:0px;margin-left:4px;&quot;&gt;&lt;span style=&quot;background-color: transparent; color: light-dark(rgb(0, 0, 0), rgb(255, 255, 255));&quot;&gt;...&lt;/span&gt;&lt;/p&gt;" style="verticalAlign=top;align=left;overflow=fill;html=1;whiteSpace=wrap;" parent="1" vertex="1">
          <mxGeometry x="-1310" y="-46" width="200" height="86" as="geometry" />
        </mxCell>
        <mxCell id="5em6XzOoX73Qv20cHfNX-14" value="" style="endArrow=open;endSize=12;html=1;rounded=0;entryX=0.997;entryY=0.457;entryDx=0;entryDy=0;exitX=0;exitY=0.228;exitDx=0;exitDy=0;exitPerimeter=0;entryPerimeter=0;" parent="1" source="5em6XzOoX73Qv20cHfNX-5" target="5em6XzOoX73Qv20cHfNX-4" edge="1">
          <mxGeometry x="0.5385" y="15" width="160" relative="1" as="geometry">
            <mxPoint x="-990" y="-140" as="sourcePoint" />
            <mxPoint x="-1008.52" y="-86.69" as="targetPoint" />
            <Array as="points">
              <mxPoint x="-1020" y="-164" />
            </Array>
            <mxPoint as="offset" />
          </mxGeometry>
        </mxCell>
        <mxCell id="1b4D5VqMZa04rkkHCNri-1" value="SymbolTable" style="swimlane;fontStyle=1;align=center;verticalAlign=top;childLayout=stackLayout;horizontal=1;startSize=26;horizontalStack=0;resizeParent=1;resizeParentMax=0;resizeLast=0;collapsible=1;marginBottom=0;whiteSpace=wrap;html=1;" parent="1" vertex="1">
          <mxGeometry x="-1574" y="100" width="218" height="150" as="geometry" />
        </mxCell>
        <mxCell id="1b4D5VqMZa04rkkHCNri-2" value="- scope : int&lt;div&gt;- table : List&amp;lt;Map&amp;lt;String, Definition&amp;gt;&amp;gt;&lt;/div&gt;" style="text;strokeColor=none;fillColor=none;align=left;verticalAlign=top;spacingLeft=4;spacingRight=4;overflow=hidden;rotatable=0;points=[[0,0.5],[1,0.5]];portConstraint=eastwest;whiteSpace=wrap;html=1;" parent="1b4D5VqMZa04rkkHCNri-1" vertex="1">
          <mxGeometry y="26" width="218" height="44" as="geometry" />
        </mxCell>
        <mxCell id="1b4D5VqMZa04rkkHCNri-3" value="" style="line;strokeWidth=1;fillColor=none;align=left;verticalAlign=middle;spacingTop=-1;spacingLeft=3;spacingRight=3;rotatable=0;labelPosition=right;points=[];portConstraint=eastwest;strokeColor=inherit;" parent="1b4D5VqMZa04rkkHCNri-1" vertex="1">
          <mxGeometry y="70" width="218" height="8" as="geometry" />
        </mxCell>
        <mxCell id="1b4D5VqMZa04rkkHCNri-4" value="&lt;div&gt;+ set() : void&lt;/div&gt;&lt;div&gt;+ reset() : void&lt;/div&gt;&lt;div&gt;+ insert(def : Definition) : boolean&lt;/div&gt;&lt;div&gt;+ find(id : String) : Definition&lt;/div&gt;" style="text;strokeColor=none;fillColor=none;align=left;verticalAlign=top;spacingLeft=4;spacingRight=4;overflow=hidden;rotatable=0;points=[[0,0.5],[1,0.5]];portConstraint=eastwest;whiteSpace=wrap;html=1;" parent="1b4D5VqMZa04rkkHCNri-1" vertex="1">
          <mxGeometry y="78" width="218" height="72" as="geometry" />
        </mxCell>
        <mxCell id="1b4D5VqMZa04rkkHCNri-16" value="IdentificationVisitor" style="swimlane;fontStyle=1;align=center;verticalAlign=top;childLayout=stackLayout;horizontal=1;startSize=26;horizontalStack=0;resizeParent=1;resizeParentMax=0;resizeLast=0;collapsible=1;marginBottom=0;whiteSpace=wrap;html=1;" parent="1" vertex="1">
          <mxGeometry x="-1590" y="-46" width="250" height="100" as="geometry" />
        </mxCell>
        <mxCell id="1b4D5VqMZa04rkkHCNri-17" value="+ symbolTable: SymbolTable" style="text;strokeColor=none;fillColor=none;align=left;verticalAlign=top;spacingLeft=4;spacingRight=4;overflow=hidden;rotatable=0;points=[[0,0.5],[1,0.5]];portConstraint=eastwest;whiteSpace=wrap;html=1;" parent="1b4D5VqMZa04rkkHCNri-16" vertex="1">
          <mxGeometry y="26" width="250" height="26" as="geometry" />
        </mxCell>
        <mxCell id="1b4D5VqMZa04rkkHCNri-18" value="" style="line;strokeWidth=1;fillColor=none;align=left;verticalAlign=middle;spacingTop=-1;spacingLeft=3;spacingRight=3;rotatable=0;labelPosition=right;points=[];portConstraint=eastwest;strokeColor=inherit;" parent="1b4D5VqMZa04rkkHCNri-16" vertex="1">
          <mxGeometry y="52" width="250" height="8" as="geometry" />
        </mxCell>
        <mxCell id="1b4D5VqMZa04rkkHCNri-19" value="+ visit(e : FunctionDefinition, p : Void) : Void&lt;div&gt;+ visit(e : VariableDefinition, p : Void) :&amp;nbsp;&lt;span style=&quot;background-color: transparent; color: light-dark(rgb(0, 0, 0), rgb(255, 255, 255));&quot;&gt;Void&lt;/span&gt;&lt;/div&gt;" style="text;strokeColor=none;fillColor=none;align=left;verticalAlign=top;spacingLeft=4;spacingRight=4;overflow=hidden;rotatable=0;points=[[0,0.5],[1,0.5]];portConstraint=eastwest;whiteSpace=wrap;html=1;" parent="1b4D5VqMZa04rkkHCNri-16" vertex="1">
          <mxGeometry y="60" width="250" height="40" as="geometry" />
        </mxCell>
        <mxCell id="1b4D5VqMZa04rkkHCNri-20" value="" style="endArrow=open;endSize=12;html=1;rounded=0;entryX=0.5;entryY=0;entryDx=0;entryDy=0;exitX=0.499;exitY=1;exitDx=0;exitDy=0;exitPerimeter=0;" parent="1" source="1b4D5VqMZa04rkkHCNri-19" target="1b4D5VqMZa04rkkHCNri-1" edge="1">
          <mxGeometry x="0.5385" y="15" width="160" relative="1" as="geometry">
            <mxPoint x="-1267" y="100" as="sourcePoint" />
            <mxPoint x="-1330" y="100" as="targetPoint" />
            <Array as="points" />
            <mxPoint as="offset" />
          </mxGeometry>
        </mxCell>
        <mxCell id="g1k0frIPEkwOb2fnlvVZ-1" value="" style="endArrow=open;endSize=12;dashed=1;html=1;rounded=0;entryX=0;entryY=0.5;entryDx=0;entryDy=0;exitX=0.648;exitY=0.003;exitDx=0;exitDy=0;exitPerimeter=0;" parent="1" source="5em6XzOoX73Qv20cHfNX-2" target="N4AWmAxjkQPShpaZA549-1" edge="1">
          <mxGeometry x="0.5385" y="15" width="160" relative="1" as="geometry">
            <mxPoint x="-510" y="175" as="sourcePoint" />
            <mxPoint x="-442.5" y="270" as="targetPoint" />
            <Array as="points">
              <mxPoint x="-524" y="480" />
              <mxPoint x="-480" y="480" />
              <mxPoint x="-480" y="196" />
            </Array>
            <mxPoint as="offset" />
          </mxGeometry>
        </mxCell>
        <mxCell id="N4AWmAxjkQPShpaZA549-1" value="&lt;p style=&quot;margin:0px;margin-top:4px;text-align:center;&quot;&gt;&lt;i&gt;&amp;lt;&amp;lt;Interface&amp;gt;&amp;gt;&lt;/i&gt;&lt;br&gt;&lt;b&gt;Type&lt;/b&gt;&lt;/p&gt;&lt;hr size=&quot;1&quot; style=&quot;border-style:solid;&quot;&gt;&lt;p style=&quot;margin:0px;margin-left:4px;&quot;&gt;&amp;nbsp;- suffix : String&lt;/p&gt;&lt;hr size=&quot;1&quot; style=&quot;border-style:solid;&quot;&gt;&lt;p style=&quot;margin:0px;margin-left:4px;&quot;&gt;&amp;nbsp;mustBeLogical(Locatable) : void&lt;br&gt;&amp;nbsp;arithmetic(Type, Locatable) : Type&lt;/p&gt;&lt;p style=&quot;margin:0px;margin-left:4px;&quot;&gt;&amp;nbsp;arithmetic(Locatable) : Type&lt;/p&gt;&lt;p style=&quot;margin:0px;margin-left:4px;&quot;&gt;&amp;nbsp;logic(Type, Locatable) : Type&lt;/p&gt;&lt;p style=&quot;margin:0px;margin-left:4px;&quot;&gt;&amp;nbsp;logic(Locatable) : Type&lt;/p&gt;&lt;p style=&quot;margin:0px;margin-left:4px;&quot;&gt;&amp;nbsp;comparison(Type, Locatable) : Type&lt;/p&gt;&lt;p style=&quot;margin:0px;margin-left:4px;&quot;&gt;&amp;nbsp;mustPromoteTo(Type, Locatable) : void&lt;/p&gt;&lt;p style=&quot;margin:0px;margin-left:4px;&quot;&gt;&amp;nbsp;mustBeBuiltIn(Locatable) : void&lt;/p&gt;&lt;p style=&quot;margin:0px;margin-left:4px;&quot;&gt;&amp;nbsp;canBeCast(Type, Locatable) : Type&lt;/p&gt;&lt;p style=&quot;margin:0px;margin-left:4px;&quot;&gt;&amp;nbsp;squareBrackets(Type, Locatable) : Type&lt;/p&gt;&lt;p style=&quot;margin:0px;margin-left:4px;&quot;&gt;&amp;nbsp;dot(String, Locatable) : Type&lt;/p&gt;&lt;p style=&quot;margin:0px;margin-left:4px;&quot;&gt;&amp;nbsp;parenthesis(List&amp;lt;Type&amp;gt;, Locatable) : Type&lt;/p&gt;&lt;p style=&quot;margin:0px;margin-left:4px;&quot;&gt;&amp;nbsp;mustBeMain(String, Locatable) : void&lt;/p&gt;" style="verticalAlign=top;align=left;overflow=fill;html=1;whiteSpace=wrap;" parent="1" vertex="1">
          <mxGeometry x="-430" y="54" width="240" height="284" as="geometry" />
        </mxCell>
        <mxCell id="wA8KzqevIQhdOLFWv7UQ-4" value="&lt;div&gt;OffsetVisitor&lt;b&gt;&lt;/b&gt;&lt;/div&gt;" style="swimlane;fontStyle=1;align=center;verticalAlign=top;childLayout=stackLayout;horizontal=1;startSize=26;horizontalStack=0;resizeParent=1;resizeParentMax=0;resizeLast=0;collapsible=1;marginBottom=0;whiteSpace=wrap;html=1;" parent="1" vertex="1">
          <mxGeometry x="-1530" y="-220" width="240" height="110" as="geometry" />
        </mxCell>
        <mxCell id="wA8KzqevIQhdOLFWv7UQ-5" value="+ globalBytesSum: int" style="text;strokeColor=none;fillColor=none;align=left;verticalAlign=top;spacingLeft=4;spacingRight=4;overflow=hidden;rotatable=0;points=[[0,0.5],[1,0.5]];portConstraint=eastwest;whiteSpace=wrap;html=1;" parent="wA8KzqevIQhdOLFWv7UQ-4" vertex="1">
          <mxGeometry y="26" width="240" height="26" as="geometry" />
        </mxCell>
        <mxCell id="wA8KzqevIQhdOLFWv7UQ-6" value="" style="line;strokeWidth=1;fillColor=none;align=left;verticalAlign=middle;spacingTop=-1;spacingLeft=3;spacingRight=3;rotatable=0;labelPosition=right;points=[];portConstraint=eastwest;strokeColor=inherit;" parent="wA8KzqevIQhdOLFWv7UQ-4" vertex="1">
          <mxGeometry y="52" width="240" height="8" as="geometry" />
        </mxCell>
        <mxCell id="wA8KzqevIQhdOLFWv7UQ-7" value="+ visit(e : VariableDefinition, p : Void) : Void&lt;br&gt;+ visit(e : Variable, p : Void) :&amp;nbsp;&lt;span style=&quot;color: light-dark(rgb(0, 0, 0), rgb(255, 255, 255)); background-color: transparent;&quot;&gt;Void&lt;/span&gt;" style="text;strokeColor=none;fillColor=none;align=left;verticalAlign=top;spacingLeft=4;spacingRight=4;overflow=hidden;rotatable=0;points=[[0,0.5],[1,0.5]];portConstraint=eastwest;whiteSpace=wrap;html=1;" parent="wA8KzqevIQhdOLFWv7UQ-4" vertex="1">
          <mxGeometry y="60" width="240" height="50" as="geometry" />
        </mxCell>
        <mxCell id="rt2C-3PgiC6c-DXno82Q-1" value="" style="endArrow=block;dashed=1;endFill=0;endSize=12;html=1;rounded=0;exitX=0.5;exitY=0;exitDx=0;exitDy=0;entryX=0.5;entryY=1;entryDx=0;entryDy=0;" parent="1" source="5em6XzOoX73Qv20cHfNX-9" target="5em6XzOoX73Qv20cHfNX-4" edge="1">
          <mxGeometry width="160" relative="1" as="geometry">
            <mxPoint x="-1095.5" y="-52" as="sourcePoint" />
            <mxPoint x="-1153.5" y="-86" as="targetPoint" />
            <Array as="points">
              <mxPoint x="-980" y="-80" />
              <mxPoint x="-1150" y="-80" />
            </Array>
          </mxGeometry>
        </mxCell>
        <mxCell id="rt2C-3PgiC6c-DXno82Q-2" value="" style="endArrow=block;dashed=1;endFill=0;endSize=12;html=1;rounded=0;exitX=0.5;exitY=0;exitDx=0;exitDy=0;entryX=0.5;entryY=1;entryDx=0;entryDy=0;" parent="1" source="5em6XzOoX73Qv20cHfNX-10" target="5em6XzOoX73Qv20cHfNX-4" edge="1">
          <mxGeometry width="160" relative="1" as="geometry">
            <mxPoint x="-1010" y="-22" as="sourcePoint" />
            <mxPoint x="-1181" y="-86" as="targetPoint" />
            <Array as="points">
              <mxPoint x="-1210" y="-80" />
              <mxPoint x="-1150" y="-80" />
            </Array>
          </mxGeometry>
        </mxCell>
        <mxCell id="rt2C-3PgiC6c-DXno82Q-3" value="" style="endArrow=block;dashed=1;endFill=0;endSize=12;html=1;rounded=0;exitX=0.5;exitY=0;exitDx=0;exitDy=0;entryX=0.5;entryY=1;entryDx=0;entryDy=0;" parent="1" source="1b4D5VqMZa04rkkHCNri-16" target="5em6XzOoX73Qv20cHfNX-4" edge="1">
          <mxGeometry width="160" relative="1" as="geometry">
            <mxPoint x="-1200" y="-36" as="sourcePoint" />
            <mxPoint x="-1140" y="-100" as="targetPoint" />
            <Array as="points">
              <mxPoint x="-1465" y="-80" />
              <mxPoint x="-1150" y="-80" />
            </Array>
          </mxGeometry>
        </mxCell>
        <mxCell id="rt2C-3PgiC6c-DXno82Q-4" value="" style="endArrow=block;dashed=1;endFill=0;endSize=12;html=1;rounded=0;exitX=0.498;exitY=1;exitDx=0;exitDy=0;entryX=0.5;entryY=1;entryDx=0;entryDy=0;exitPerimeter=0;" parent="1" source="wA8KzqevIQhdOLFWv7UQ-7" target="5em6XzOoX73Qv20cHfNX-4" edge="1">
          <mxGeometry width="160" relative="1" as="geometry">
            <mxPoint x="-1455" y="-36" as="sourcePoint" />
            <mxPoint x="-1140" y="-100" as="targetPoint" />
            <Array as="points">
              <mxPoint x="-1410" y="-80" />
              <mxPoint x="-1150" y="-80" />
            </Array>
          </mxGeometry>
        </mxCell>
        <mxCell id="rt2C-3PgiC6c-DXno82Q-5" value="&lt;div&gt;ExecuteCGVisitor&lt;b&gt;&lt;/b&gt;&lt;/div&gt;" style="swimlane;fontStyle=1;align=center;verticalAlign=top;childLayout=stackLayout;horizontal=1;startSize=26;horizontalStack=0;resizeParent=1;resizeParentMax=0;resizeLast=0;collapsible=1;marginBottom=0;whiteSpace=wrap;html=1;" parent="1" vertex="1">
          <mxGeometry x="-1220" y="-400" width="150" height="80" as="geometry" />
        </mxCell>
        <mxCell id="rt2C-3PgiC6c-DXno82Q-6" value="&amp;nbsp;" style="text;strokeColor=none;fillColor=none;align=left;verticalAlign=top;spacingLeft=4;spacingRight=4;overflow=hidden;rotatable=0;points=[[0,0.5],[1,0.5]];portConstraint=eastwest;whiteSpace=wrap;html=1;" parent="rt2C-3PgiC6c-DXno82Q-5" vertex="1">
          <mxGeometry y="26" width="150" height="24" as="geometry" />
        </mxCell>
        <mxCell id="rt2C-3PgiC6c-DXno82Q-7" value="" style="line;strokeWidth=1;fillColor=none;align=left;verticalAlign=middle;spacingTop=-1;spacingLeft=3;spacingRight=3;rotatable=0;labelPosition=right;points=[];portConstraint=eastwest;strokeColor=inherit;" parent="rt2C-3PgiC6c-DXno82Q-5" vertex="1">
          <mxGeometry y="50" width="150" height="8" as="geometry" />
        </mxCell>
        <mxCell id="rt2C-3PgiC6c-DXno82Q-8" value="&amp;nbsp;" style="text;strokeColor=none;fillColor=none;align=left;verticalAlign=top;spacingLeft=4;spacingRight=4;overflow=hidden;rotatable=0;points=[[0,0.5],[1,0.5]];portConstraint=eastwest;whiteSpace=wrap;html=1;" parent="rt2C-3PgiC6c-DXno82Q-5" vertex="1">
          <mxGeometry y="58" width="150" height="22" as="geometry" />
        </mxCell>
        <mxCell id="rt2C-3PgiC6c-DXno82Q-9" value="&lt;div&gt;ValueCGVisitor&lt;b&gt;&lt;/b&gt;&lt;/div&gt;" style="swimlane;fontStyle=1;align=center;verticalAlign=top;childLayout=stackLayout;horizontal=1;startSize=26;horizontalStack=0;resizeParent=1;resizeParentMax=0;resizeLast=0;collapsible=1;marginBottom=0;whiteSpace=wrap;html=1;" parent="1" vertex="1">
          <mxGeometry x="-1020" y="-400" width="140" height="80" as="geometry" />
        </mxCell>
        <mxCell id="rt2C-3PgiC6c-DXno82Q-10" value="&amp;nbsp;" style="text;strokeColor=none;fillColor=none;align=left;verticalAlign=top;spacingLeft=4;spacingRight=4;overflow=hidden;rotatable=0;points=[[0,0.5],[1,0.5]];portConstraint=eastwest;whiteSpace=wrap;html=1;" parent="rt2C-3PgiC6c-DXno82Q-9" vertex="1">
          <mxGeometry y="26" width="140" height="24" as="geometry" />
        </mxCell>
        <mxCell id="rt2C-3PgiC6c-DXno82Q-11" value="" style="line;strokeWidth=1;fillColor=none;align=left;verticalAlign=middle;spacingTop=-1;spacingLeft=3;spacingRight=3;rotatable=0;labelPosition=right;points=[];portConstraint=eastwest;strokeColor=inherit;" parent="rt2C-3PgiC6c-DXno82Q-9" vertex="1">
          <mxGeometry y="50" width="140" height="8" as="geometry" />
        </mxCell>
        <mxCell id="rt2C-3PgiC6c-DXno82Q-12" value="&amp;nbsp;" style="text;strokeColor=none;fillColor=none;align=left;verticalAlign=top;spacingLeft=4;spacingRight=4;overflow=hidden;rotatable=0;points=[[0,0.5],[1,0.5]];portConstraint=eastwest;whiteSpace=wrap;html=1;" parent="rt2C-3PgiC6c-DXno82Q-9" vertex="1">
          <mxGeometry y="58" width="140" height="22" as="geometry" />
        </mxCell>
        <mxCell id="rt2C-3PgiC6c-DXno82Q-13" value="&lt;div&gt;AddressCGVisitor&lt;b&gt;&lt;/b&gt;&lt;/div&gt;" style="swimlane;fontStyle=1;align=center;verticalAlign=top;childLayout=stackLayout;horizontal=1;startSize=26;horizontalStack=0;resizeParent=1;resizeParentMax=0;resizeLast=0;collapsible=1;marginBottom=0;whiteSpace=wrap;html=1;" parent="1" vertex="1">
          <mxGeometry x="-1430" y="-400" width="160" height="80" as="geometry" />
        </mxCell>
        <mxCell id="rt2C-3PgiC6c-DXno82Q-14" value="&amp;nbsp;" style="text;strokeColor=none;fillColor=none;align=left;verticalAlign=top;spacingLeft=4;spacingRight=4;overflow=hidden;rotatable=0;points=[[0,0.5],[1,0.5]];portConstraint=eastwest;whiteSpace=wrap;html=1;" parent="rt2C-3PgiC6c-DXno82Q-13" vertex="1">
          <mxGeometry y="26" width="160" height="24" as="geometry" />
        </mxCell>
        <mxCell id="rt2C-3PgiC6c-DXno82Q-15" value="" style="line;strokeWidth=1;fillColor=none;align=left;verticalAlign=middle;spacingTop=-1;spacingLeft=3;spacingRight=3;rotatable=0;labelPosition=right;points=[];portConstraint=eastwest;strokeColor=inherit;" parent="rt2C-3PgiC6c-DXno82Q-13" vertex="1">
          <mxGeometry y="50" width="160" height="8" as="geometry" />
        </mxCell>
        <mxCell id="rt2C-3PgiC6c-DXno82Q-16" value="&amp;nbsp;" style="text;strokeColor=none;fillColor=none;align=left;verticalAlign=top;spacingLeft=4;spacingRight=4;overflow=hidden;rotatable=0;points=[[0,0.5],[1,0.5]];portConstraint=eastwest;whiteSpace=wrap;html=1;" parent="rt2C-3PgiC6c-DXno82Q-13" vertex="1">
          <mxGeometry y="58" width="160" height="22" as="geometry" />
        </mxCell>
        <mxCell id="rt2C-3PgiC6c-DXno82Q-17" value="" style="endArrow=block;dashed=1;endFill=0;endSize=12;html=1;rounded=0;exitX=0.5;exitY=0.998;exitDx=0;exitDy=0;entryX=0.5;entryY=0;entryDx=0;entryDy=0;exitPerimeter=0;" parent="1" source="rt2C-3PgiC6c-DXno82Q-12" target="5em6XzOoX73Qv20cHfNX-4" edge="1">
          <mxGeometry width="160" relative="1" as="geometry">
            <mxPoint x="-969.5" y="-236" as="sourcePoint" />
            <mxPoint x="-1140.5" y="-300" as="targetPoint" />
            <Array as="points">
              <mxPoint x="-950" y="-280" />
              <mxPoint x="-1150" y="-280" />
            </Array>
          </mxGeometry>
        </mxCell>
        <mxCell id="rt2C-3PgiC6c-DXno82Q-18" value="" style="endArrow=block;dashed=1;endFill=0;endSize=12;html=1;rounded=0;exitX=0.468;exitY=0.998;exitDx=0;exitDy=0;entryX=0.5;entryY=0;entryDx=0;entryDy=0;exitPerimeter=0;" parent="1" source="rt2C-3PgiC6c-DXno82Q-8" target="5em6XzOoX73Qv20cHfNX-4" edge="1">
          <mxGeometry width="160" relative="1" as="geometry">
            <mxPoint x="-950" y="-310" as="sourcePoint" />
            <mxPoint x="-1140" y="-200" as="targetPoint" />
            <Array as="points">
              <mxPoint x="-1150" y="-280" />
            </Array>
          </mxGeometry>
        </mxCell>
        <mxCell id="rt2C-3PgiC6c-DXno82Q-19" value="" style="endArrow=block;dashed=1;endFill=0;endSize=12;html=1;rounded=0;exitX=0.469;exitY=1.003;exitDx=0;exitDy=0;entryX=0.5;entryY=0;entryDx=0;entryDy=0;exitPerimeter=0;" parent="1" source="rt2C-3PgiC6c-DXno82Q-16" target="5em6XzOoX73Qv20cHfNX-4" edge="1">
          <mxGeometry width="160" relative="1" as="geometry">
            <mxPoint x="-1140" y="-310" as="sourcePoint" />
            <mxPoint x="-1140" y="-200" as="targetPoint" />
            <Array as="points">
              <mxPoint x="-1355" y="-280" />
              <mxPoint x="-1150" y="-280" />
            </Array>
          </mxGeometry>
        </mxCell>
        <mxCell id="rt2C-3PgiC6c-DXno82Q-20" value="" style="endArrow=open;endSize=12;html=1;rounded=0;entryX=0;entryY=0.5;entryDx=0;entryDy=0;exitX=1;exitY=0.5;exitDx=0;exitDy=0;" parent="1" source="rt2C-3PgiC6c-DXno82Q-6" target="rt2C-3PgiC6c-DXno82Q-10" edge="1">
          <mxGeometry x="0.5385" y="15" width="160" relative="1" as="geometry">
            <mxPoint x="-1020" y="-290" as="sourcePoint" />
            <mxPoint x="-1083" y="-290" as="targetPoint" />
            <Array as="points" />
            <mxPoint as="offset" />
          </mxGeometry>
        </mxCell>
        <mxCell id="rt2C-3PgiC6c-DXno82Q-21" value="" style="endArrow=open;endSize=12;html=1;rounded=0;entryX=1;entryY=0.5;entryDx=0;entryDy=0;exitX=0;exitY=0.5;exitDx=0;exitDy=0;" parent="1" source="rt2C-3PgiC6c-DXno82Q-6" target="rt2C-3PgiC6c-DXno82Q-14" edge="1">
          <mxGeometry x="0.5385" y="15" width="160" relative="1" as="geometry">
            <mxPoint x="-1055" y="-352" as="sourcePoint" />
            <mxPoint x="-1030" y="-352" as="targetPoint" />
            <Array as="points" />
            <mxPoint as="offset" />
          </mxGeometry>
        </mxCell>
        <mxCell id="rt2C-3PgiC6c-DXno82Q-22" value="CodeGenerator" style="swimlane;fontStyle=1;align=center;verticalAlign=top;childLayout=stackLayout;horizontal=1;startSize=26;horizontalStack=0;resizeParent=1;resizeParentMax=0;resizeLast=0;collapsible=1;marginBottom=0;whiteSpace=wrap;html=1;" parent="1" vertex="1">
          <mxGeometry x="-1250.26" y="-610" width="210.52" height="170" as="geometry" />
        </mxCell>
        <mxCell id="rt2C-3PgiC6c-DXno82Q-23" value="+ inputFile : String&lt;div&gt;+ outputFile : String&lt;/div&gt;&lt;div&gt;- out : PrintWriter&lt;/div&gt;" style="text;strokeColor=none;fillColor=none;align=left;verticalAlign=top;spacingLeft=4;spacingRight=4;overflow=hidden;rotatable=0;points=[[0,0.5],[1,0.5]];portConstraint=eastwest;whiteSpace=wrap;html=1;" parent="rt2C-3PgiC6c-DXno82Q-22" vertex="1">
          <mxGeometry y="26" width="210.52" height="54" as="geometry" />
        </mxCell>
        <mxCell id="rt2C-3PgiC6c-DXno82Q-24" value="" style="line;strokeWidth=1;fillColor=none;align=left;verticalAlign=middle;spacingTop=-1;spacingLeft=3;spacingRight=3;rotatable=0;labelPosition=right;points=[];portConstraint=eastwest;strokeColor=inherit;" parent="rt2C-3PgiC6c-DXno82Q-22" vertex="1">
          <mxGeometry y="80" width="210.52" height="8" as="geometry" />
        </mxCell>
        <mxCell id="rt2C-3PgiC6c-DXno82Q-25" value="&lt;div&gt;+ CodeGenerator(String, String)&lt;/div&gt;&lt;div&gt;+ pushBP()&lt;/div&gt;&lt;div&gt;+ push(int)&lt;/div&gt;&lt;div&gt;+ push(char)&lt;/div&gt;&lt;div&gt;...&lt;/div&gt;" style="text;strokeColor=none;fillColor=none;align=left;verticalAlign=top;spacingLeft=4;spacingRight=4;overflow=hidden;rotatable=0;points=[[0,0.5],[1,0.5]];portConstraint=eastwest;whiteSpace=wrap;html=1;" parent="rt2C-3PgiC6c-DXno82Q-22" vertex="1">
          <mxGeometry y="88" width="210.52" height="82" as="geometry" />
        </mxCell>
        <mxCell id="rt2C-3PgiC6c-DXno82Q-32" value="" style="endArrow=open;endSize=12;html=1;rounded=0;entryX=0.502;entryY=1;entryDx=0;entryDy=0;exitX=0.5;exitY=0;exitDx=0;exitDy=0;entryPerimeter=0;" parent="1" source="rt2C-3PgiC6c-DXno82Q-5" target="rt2C-3PgiC6c-DXno82Q-25" edge="1">
          <mxGeometry x="0.5385" y="15" width="160" relative="1" as="geometry">
            <mxPoint x="-1090" y="-460" as="sourcePoint" />
            <mxPoint x="-1140" y="-460" as="targetPoint" />
            <Array as="points" />
            <mxPoint as="offset" />
          </mxGeometry>
        </mxCell>
        <mxCell id="rt2C-3PgiC6c-DXno82Q-33" value="" style="endArrow=none;html=1;rounded=0;exitX=0;exitY=0.5;exitDx=0;exitDy=0;entryX=1;entryY=0.5;entryDx=0;entryDy=0;" parent="1" source="rt2C-3PgiC6c-DXno82Q-12" target="rt2C-3PgiC6c-DXno82Q-16" edge="1">
          <mxGeometry width="50" height="50" relative="1" as="geometry">
            <mxPoint x="-1050" y="-410" as="sourcePoint" />
            <mxPoint x="-1000" y="-460" as="targetPoint" />
            <Array as="points">
              <mxPoint x="-1040" y="-331" />
              <mxPoint x="-1040" y="-300" />
              <mxPoint x="-1240" y="-300" />
              <mxPoint x="-1240" y="-331" />
            </Array>
          </mxGeometry>
        </mxCell>
        <mxCell id="rt2C-3PgiC6c-DXno82Q-36" value="1" style="edgeLabel;html=1;align=center;verticalAlign=middle;resizable=0;points=[];" parent="rt2C-3PgiC6c-DXno82Q-33" vertex="1" connectable="0">
          <mxGeometry x="-0.9244" relative="1" as="geometry">
            <mxPoint x="1" y="11" as="offset" />
          </mxGeometry>
        </mxCell>
        <mxCell id="rt2C-3PgiC6c-DXno82Q-37" value="1" style="edgeLabel;html=1;align=center;verticalAlign=middle;resizable=0;points=[];" parent="rt2C-3PgiC6c-DXno82Q-33" vertex="1" connectable="0">
          <mxGeometry x="0.9603" relative="1" as="geometry">
            <mxPoint x="4" y="11" as="offset" />
          </mxGeometry>
        </mxCell>
        <mxCell id="rt2C-3PgiC6c-DXno82Q-34" value="" style="endArrow=open;endSize=12;html=1;rounded=0;entryX=1;entryY=0.5;entryDx=0;entryDy=0;exitX=0.5;exitY=0;exitDx=0;exitDy=0;" parent="1" source="rt2C-3PgiC6c-DXno82Q-9" target="rt2C-3PgiC6c-DXno82Q-25" edge="1">
          <mxGeometry x="0.5385" y="15" width="160" relative="1" as="geometry">
            <mxPoint x="-1135" y="-390" as="sourcePoint" />
            <mxPoint x="-1134" y="-460" as="targetPoint" />
            <Array as="points">
              <mxPoint x="-950" y="-480" />
            </Array>
            <mxPoint as="offset" />
          </mxGeometry>
        </mxCell>
        <mxCell id="rt2C-3PgiC6c-DXno82Q-35" value="" style="endArrow=open;endSize=12;html=1;rounded=0;entryX=0;entryY=0.5;entryDx=0;entryDy=0;exitX=0.5;exitY=0;exitDx=0;exitDy=0;" parent="1" source="rt2C-3PgiC6c-DXno82Q-13" target="rt2C-3PgiC6c-DXno82Q-25" edge="1">
          <mxGeometry x="0.5385" y="15" width="160" relative="1" as="geometry">
            <mxPoint x="-940" y="-390" as="sourcePoint" />
            <mxPoint x="-1029" y="-501" as="targetPoint" />
            <Array as="points">
              <mxPoint x="-1350" y="-480" />
            </Array>
            <mxPoint as="offset" />
          </mxGeometry>
        </mxCell>
      </root>
    </mxGraphModel>
  </diagram>
</mxfile>
